<svg xmlns="http://www.w3.org/2000/svg" xmlns:xlink="http://www.w3.org/1999/xlink" viewBox="0 0 26 26" version="1.1" width="208px" height="208px">
<g id="surface1">
<path style=" " d="M 24.0625 0.03125 C 22.320313 0.125 19.945313 1.582031 19.1875 2.34375 L 16.09375 5.4375 L 12.46875 5.1875 C 12.683594 4.636719 12.707031 3.957031 12.25 3.5 C 11.574219 2.824219 10.394531 3.195313 9.90625 3.6875 L 8.65625 4.9375 L 2 4.5 L 0.15625 6.40625 L 11.0625 10.4375 L 5.5 16 L 2.1875 16 L 0.03125 18.1875 L 6.28125 19.71875 L 7.8125 25.96875 L 10 23.8125 L 10 20.46875 L 15.5625 14.90625 L 19.59375 25.84375 L 21.5 24 L 21.0625 17.34375 L 22.3125 16.09375 C 22.804688 15.605469 23.175781 14.425781 22.5 13.75 C 22.042969 13.292969 21.363281 13.316406 20.8125 13.53125 L 20.5625 9.90625 L 23.65625 6.8125 C 24.671875 5.796875 26.929688 1.867188 25.53125 0.46875 C 25.179688 0.117188 24.644531 0 24.0625 0.03125 Z "/>
</g>
</svg>
