<svg xmlns="http://www.w3.org/2000/svg" xmlns:xlink="http://www.w3.org/1999/xlink" viewBox="0 0 26 26" version="1.1" width="208px" height="208px">
<g id="surface1">
<path style=" " d="M 10.59375 0 C 9.59375 0.199219 8.792969 1 8.59375 2 C 8.992188 1.898438 9.414063 1.613281 9.8125 1.3125 C 10.113281 0.914063 10.394531 0.5 10.59375 0 Z M 11.09375 0 C 10.992188 0.5 10.59375 1.09375 10.09375 1.59375 C 9.59375 2.09375 9 2.394531 8.5 2.59375 C 8.601563 3.894531 9.605469 4.898438 10.90625 5 C 11.105469 4.5 11.40625 3.90625 11.90625 3.40625 C 12.40625 2.90625 13 2.605469 13.5 2.40625 C 13.5 1.105469 12.394531 0 11.09375 0 Z M 22.90625 0.0625 C 22.328125 0.132813 21.761719 0.398438 21.3125 0.8125 L 14.90625 7.1875 C 12.605469 9.488281 7.988281 16.507813 5.1875 19.40625 L 1.6875 22.90625 C 1.289063 22.507813 0.710938 22.507813 0.3125 22.90625 C -0.0859375 23.304688 -0.0859375 23.914063 0.3125 24.3125 L 1.8125 25.8125 C 2.210938 26.210938 2.789063 26.210938 3.1875 25.8125 C 3.585938 25.414063 3.585938 24.804688 3.1875 24.40625 L 6.6875 20.90625 C 9.488281 18.007813 16.511719 13.394531 18.8125 11.09375 L 25.09375 4.8125 C 26.09375 3.8125 26.300781 2.289063 25.5 1.1875 C 24.875 0.3125 23.875 -0.0546875 22.90625 0.0625 Z M 13.5 2.90625 C 13.101563 3.105469 12.710938 3.289063 12.3125 3.6875 C 11.914063 4.085938 11.699219 4.507813 11.5 4.90625 C 12.5 4.804688 13.300781 4.007813 13.5 2.90625 Z "/>
</g>
</svg>
