<svg xmlns="http://www.w3.org/2000/svg" xmlns:xlink="http://www.w3.org/1999/xlink" viewBox="0 0 26 26" version="1.1">
<path d="M 12.90625 -0.03125 C 12.863281 -0.0234375 12.820313 -0.0117188 12.78125 0 C 12.316406 0.105469 11.988281 0.523438 12 1 L 12 1.09375 C 12 1.125 12 1.15625 12 1.1875 L 12 2.03125 C 5.269531 2.40625 0 6.542969 0 11.5 C 0 12.898438 1.195313 14 2.59375 14 C 3.445313 14 4.296875 13.480469 4.78125 12.84375 C 5.601563 13.554688 6.644531 14 7.8125 14 C 8.964844 14 10.003906 13.566406 10.8125 12.875 C 11.101563 13.246094 11.515625 13.574219 12 13.78125 L 12 25.3125 L 11.09375 23 C 6.09375 23 3 23.800781 3 24.5 C 3 25.300781 6.898438 26 13 26 C 19.101563 26 23 25.300781 23 24.5 C 23 23.746094 19.507813 23.074219 14 23 L 14 13.78125 C 14.484375 13.574219 14.898438 13.246094 15.1875 12.875 C 15.996094 13.566406 17.035156 14 18.1875 14 C 19.339844 14 20.375 13.566406 21.1875 12.875 C 21.652344 13.511719 22.488281 14 23.40625 14 C 24.804688 14 26 12.898438 26 11.5 C 26 6.542969 20.730469 2.40625 14 2.03125 L 14 1.25 C 14.003906 1.199219 14.003906 1.144531 14 1.09375 L 14 1 C 14.011719 0.710938 13.894531 0.433594 13.6875 0.238281 C 13.476563 0.0390625 13.191406 -0.0585938 12.90625 -0.03125 Z M 12.78125 2.09375 C 12.792969 2.09375 12.800781 2.09375 12.8125 2.09375 L 12.90625 2.09375 C 12.511719 2.472656 10.699219 4.46875 10.40625 9.3125 C 10.40625 9.324219 10.40625 9.332031 10.40625 9.34375 C 10.40625 9.375 10.40625 9.40625 10.40625 9.4375 C 10.40625 9.457031 10.40625 9.480469 10.40625 9.5 C 10.40625 9.511719 10.40625 9.519531 10.40625 9.53125 C 10.390625 10.855469 9.269531 12 7.8125 12 C 6.640625 12 5.6875 11.265625 5.34375 10.28125 C 6.289063 5.042969 11.828125 2.496094 12.78125 2.09375 Z M 13.0625 2.09375 C 13.082031 2.09375 13.105469 2.09375 13.125 2.09375 L 13.21875 2.09375 C 13.230469 2.09375 13.238281 2.09375 13.25 2.09375 C 14.332031 2.453125 19.800781 4.515625 20.6875 10.21875 C 20.363281 11.234375 19.386719 12 18.1875 12 C 16.835938 12 15.78125 11.015625 15.625 9.8125 C 15.453125 4.46875 13.257813 2.277344 13.0625 2.09375 Z "/>
</svg>
