<svg xmlns="http://www.w3.org/2000/svg" xmlns:xlink="http://www.w3.org/1999/xlink" viewBox="0 0 26 26" version="1.1" width="208px" height="208px">
<g id="surface1">
<path style=" " d="M 13 0 C 5.832031 0 0 5.832031 0 13 C 0 20.167969 5.832031 26 13 26 C 20.167969 26 26 20.167969 26 13 C 26 5.832031 20.167969 0 13 0 Z M 16.9375 2.75 C 21.066406 4.332031 24 8.304688 24 13 C 24 13.378906 23.976563 13.753906 23.9375 14.125 C 21.390625 10.648438 16.6875 10 16.6875 10 C 16.886719 10.300781 17 10.601563 17 11 C 17 11.800781 16.507813 12.511719 15.90625 12.8125 C 17.382813 14.464844 19.027344 19.03125 19.625 21.78125 C 17.78125 23.171875 15.492188 24 13 24 C 11.546875 24 10.171875 23.695313 8.90625 23.1875 C 10.96875 20.371094 14.042969 15.175781 14.40625 12.90625 C 13.605469 12.605469 13 11.898438 13 11 C 13 10.699219 13.085938 10.394531 13.1875 10.09375 C 8.890625 10.550781 5.039063 12.617188 2.34375 15.71875 C 2.125 14.847656 2 13.9375 2 13 C 2 8.542969 4.640625 4.730469 8.4375 3 C 10.234375 4.324219 12.992188 7.523438 13.8125 9.40625 C 14.113281 9.207031 14.5 9 15 9 C 15.398438 9 15.699219 9.113281 16 9.3125 C 16.253906 8.632813 17.054688 5.234375 16.9375 2.75 Z "/>
</g>
</svg>
