<svg xmlns="http://www.w3.org/2000/svg" xmlns:xlink="http://www.w3.org/1999/xlink" viewBox="0 0 26 26" version="1.1" width="208px" height="208px">
<g id="surface1">
<path style=" " d="M 19.4375 2.03125 C 19.207031 2.054688 19 2.179688 18.875 2.375 C 18.546875 2.867188 17.890625 3.121094 17.25 3.21875 C 16.609375 3.316406 16.09375 3.25 16.09375 3.25 C 15.855469 3.214844 15.617188 3.296875 15.449219 3.472656 C 15.28125 3.644531 15.207031 3.886719 15.25 4.125 C 15.25 4.125 15.480469 5.320313 15.96875 7.0625 L 9.96875 7.0625 L 9.6875 6.34375 C 10.714844 6.082031 11.09375 5.925781 11.09375 5.59375 C 11.09375 5.292969 10.601563 5.3125 10 5.3125 L 6.6875 5.3125 C 6.1875 5.3125 6.09375 5.5 6.09375 6 C 6.09375 7.761719 6.90625 7.28125 8.21875 6.78125 L 8.59375 7.71875 L 4.9375 15.46875 C 4.820313 15.699219 4.828125 15.976563 4.960938 16.199219 C 5.09375 16.421875 5.335938 16.558594 5.59375 16.5625 L 12.59375 16.5625 C 12.613281 16.5625 12.636719 16.5625 12.65625 16.5625 C 12.6875 16.554688 12.71875 16.542969 12.75 16.53125 C 12.839844 16.515625 12.921875 16.484375 13 16.4375 C 13.011719 16.425781 13.019531 16.417969 13.03125 16.40625 C 13.105469 16.355469 13.167969 16.292969 13.21875 16.21875 C 13.273438 16.152344 13.316406 16.078125 13.34375 16 L 17.0625 10.5 C 17.765625 12.386719 18.699219 14.414063 19.875 16.21875 C 20.109375 16.5625 20.578125 16.65625 20.921875 16.421875 C 21.265625 16.1875 21.359375 15.71875 21.125 15.375 C 19.71875 13.21875 18.726563 10.796875 18.0625 8.78125 C 18.058594 8.726563 18.046875 8.675781 18.03125 8.625 C 18.027344 8.617188 18.035156 8.601563 18.03125 8.59375 L 17.71875 7.59375 C 17.699219 7.5625 17.679688 7.53125 17.65625 7.5 C 17.652344 7.488281 17.660156 7.480469 17.65625 7.46875 C 17.648438 7.449219 17.636719 7.425781 17.625 7.40625 C 17.257813 6.136719 17.0625 5.15625 16.96875 4.71875 C 17.203125 4.710938 17.214844 4.761719 17.5 4.71875 C 18.359375 4.589844 19.453125 4.226563 20.125 3.21875 C 20.289063 2.988281 20.3125 2.683594 20.179688 2.433594 C 20.046875 2.179688 19.785156 2.023438 19.5 2.03125 C 19.480469 2.03125 19.457031 2.03125 19.4375 2.03125 Z M 10.5625 8.5625 L 16.40625 8.5625 C 16.421875 8.613281 16.453125 8.667969 16.46875 8.71875 L 12.78125 14.1875 Z M 9.34375 9.625 L 11.5 15.0625 L 6.78125 15.0625 Z M 5.5 10.5 C 2.601563 10.5 0.1875 12.914063 0.1875 15.8125 C 0.1875 18.710938 2.601563 21.09375 5.5 21.09375 C 7.800781 21.09375 9.800781 19.601563 10.5 17.5 L 8.6875 17.5 C 8.085938 18.601563 6.894531 19.40625 5.59375 19.40625 C 3.59375 19.40625 2 17.8125 2 15.8125 C 2 13.914063 3.507813 12.3125 5.40625 12.3125 L 6.1875 10.59375 C 5.988281 10.59375 5.800781 10.5 5.5 10.5 Z M 20.125 10.5 C 20.011719 10.511719 19.914063 10.542969 19.8125 10.59375 C 20.011719 11.195313 20.300781 11.710938 20.5 12.3125 C 22.5 12.3125 24.09375 13.90625 24.09375 15.90625 C 24.09375 17.90625 22.5 19.5 20.5 19.5 C 18.5 19.5 16.90625 17.90625 16.90625 15.90625 C 16.90625 15.207031 17.101563 14.5 17.5 14 C 17.199219 13.398438 16.886719 12.789063 16.6875 12.1875 C 15.789063 13.1875 15.1875 14.507813 15.1875 15.90625 C 15.1875 18.804688 17.601563 21.1875 20.5 21.1875 C 23.398438 21.1875 25.8125 18.804688 25.8125 15.90625 C 25.8125 13.007813 23.398438 10.5 20.5 10.5 C 20.351563 10.5 20.238281 10.488281 20.125 10.5 Z M 9.1875 12 L 8.40625 13.6875 C 8.507813 13.789063 8.492188 13.894531 8.59375 14.09375 L 10.5 14.09375 C 10.199219 13.292969 9.886719 12.601563 9.1875 12 Z "/>
</g>
</svg>
