<svg xmlns="http://www.w3.org/2000/svg" xmlns:xlink="http://www.w3.org/1999/xlink" viewBox="0 0 26 26" version="1.1" width="208px" height="208px">
<g id="surface1">
<path style=" " d="M 9 2 C 8.398438 2 8 2.398438 8 3 L 8 3.5 C 5.800781 4.101563 4.398438 5.398438 4 8 C 3.800781 9 3 14 3 16 L 3 22 C 3 22.914063 3.390625 23.410156 4 23.6875 L 4 25 C 4 25.601563 4.398438 26 5 26 L 7 26 C 7.601563 26 8 25.601563 8 25 L 8 24 L 18 24 L 18 25 C 18 25.601563 18.398438 26 19 26 L 21 26 C 21.601563 26 22 25.601563 22 25 L 22 23.6875 C 22.609375 23.410156 23 22.914063 23 22 L 23 16 C 23 14 22.101563 8.699219 22 8 C 21.601563 5.398438 20.199219 4.101563 18 3.5 L 18 3 C 18 2.398438 17.601563 2 17 2 Z M 10 3 L 16 3 C 16.601563 3 16.601563 4 16 4 L 10 4 C 9.398438 4 9.398438 3 10 3 Z M 10.875 5.90625 C 11.484375 5.898438 12.199219 5.90625 13 5.90625 C 19.398438 5.90625 19.300781 6.011719 20 9.3125 C 20.5 11.511719 20.59375 12.5 20.59375 13 C 20.59375 13.5 20.09375 14 19.59375 14 L 6.40625 14 C 5.90625 14 5.40625 13.5 5.40625 13 C 5.40625 12.5 5.5 11.414063 6 9.3125 C 6.613281 6.425781 6.597656 5.96875 10.875 5.90625 Z M 7.5 17.6875 C 8.5 17.6875 9.3125 18.5 9.3125 19.5 C 9.3125 20.5 8.5 21.3125 7.5 21.3125 C 6.5 21.3125 5.6875 20.5 5.6875 19.5 C 5.6875 18.5 6.5 17.6875 7.5 17.6875 Z M 18.5 17.6875 C 19.5 17.6875 20.3125 18.5 20.3125 19.5 C 20.3125 20.5 19.5 21.3125 18.5 21.3125 C 17.5 21.3125 16.6875 20.5 16.6875 19.5 C 16.6875 18.5 17.5 17.6875 18.5 17.6875 Z "/>
</g>
</svg>
