<svg xmlns="http://www.w3.org/2000/svg" xmlns:xlink="http://www.w3.org/1999/xlink" viewBox="0 0 26 26" version="1.1" width="208px" height="208px">
<g id="surface1">
<path style=" " d="M 1 4 C 0.398438 4 0 4.398438 0 5 L 0 19 C 0 19.601563 0.398438 20 1 20 L 3 20 C 3.199219 18.300781 4.699219 16.90625 6.5 16.90625 C 8.300781 16.90625 9.800781 18.300781 10 20 L 14 20 C 14.601563 20 15 19.601563 15 19 L 15 5 C 15 4.398438 14.601563 4 14 4 Z M 17 8 C 16.398438 8 16 8.398438 16 9 L 16 19 C 16 19.5 16.398438 20 17 20 C 17.199219 18.300781 18.699219 16.90625 20.5 16.90625 C 22.300781 16.90625 23.800781 18.199219 24 20 L 25 20 C 25.601563 20 26 19.601563 26 19 L 26 14 C 26 13.101563 25.1875 12 25.1875 12 L 23 9 C 22.5 8.398438 22.199219 8 21.5 8 Z M 19 10 L 21.40625 10 C 21.605469 10 21.8125 10.1875 21.8125 10.1875 L 23.90625 13.09375 C 24.105469 13.394531 24.3125 13.699219 24.3125 14 L 19 14 Z M 6.5 18.1875 C 5.230469 18.1875 4.1875 19.230469 4.1875 20.5 C 4.1875 21.769531 5.230469 22.8125 6.5 22.8125 C 7.769531 22.8125 8.8125 21.769531 8.8125 20.5 C 8.8125 19.230469 7.769531 18.1875 6.5 18.1875 Z M 20.5 18.1875 C 19.230469 18.1875 18.1875 19.230469 18.1875 20.5 C 18.1875 21.769531 19.230469 22.8125 20.5 22.8125 C 21.769531 22.8125 22.8125 21.769531 22.8125 20.5 C 22.8125 19.230469 21.769531 18.1875 20.5 18.1875 Z "/>
</g>
</svg>
