<svg xmlns="http://www.w3.org/2000/svg" xmlns:xlink="http://www.w3.org/1999/xlink" viewBox="0 0 26 26" version="1.1" width="208px" height="208px">
<g id="surface1">
<path style=" " d="M 12.90625 -0.03125 C 12.863281 -0.0234375 12.820313 -0.0117188 12.78125 0 C 12.316406 0.105469 11.988281 0.523438 12 1 L 12 2.15625 C 10.597656 2.519531 9.519531 3.597656 9.15625 5 L 9 5 C 8.96875 5 8.9375 5 8.90625 5 C 8.355469 5.027344 7.925781 5.496094 7.953125 6.046875 C 7.980469 6.597656 8.449219 7.027344 9 7 L 17 7 C 17.359375 7.003906 17.695313 6.816406 17.878906 6.503906 C 18.058594 6.191406 18.058594 5.808594 17.878906 5.496094 C 17.695313 5.183594 17.359375 4.996094 17 5 L 16.84375 5 C 16.480469 3.597656 15.402344 2.519531 14 2.15625 L 14 1 C 14.011719 0.710938 13.894531 0.433594 13.6875 0.238281 C 13.476563 0.0390625 13.191406 -0.0585938 12.90625 -0.03125 Z M 9 8 L 9 11.59375 L 11 10.8125 L 11 8 Z M 12 8 L 12 10.40625 L 13 10 L 14 10.40625 L 14 8 Z M 15 8 L 15 10.8125 L 17 11.59375 L 17 8 Z M 13 11 L 3 15 L 3 16.09375 C 3 16.59375 3.40625 17 3.90625 17 L 22 17 C 22.5 17 22.90625 16.59375 22.90625 16.09375 L 22.90625 15 L 23 15 Z M 4 18 L 4 24.8125 C 4 25.511719 4.488281 26 5.1875 26 L 10 26 L 10 23.09375 C 10 21.59375 11.007813 20.300781 12.40625 20 C 14.304688 19.601563 16 21.105469 16 22.90625 L 16 25.90625 L 20.8125 25.90625 C 21.511719 25.90625 22 25.386719 22 24.6875 L 22 18 Z "/>
</g>
</svg>
