<svg xmlns="http://www.w3.org/2000/svg" xmlns:xlink="http://www.w3.org/1999/xlink" viewBox="0 0 26 26" version="1.1" width="208px" height="208px">
<g id="surface1">
<path style=" " d="M 19.5 3 C 18.121094 3 17 4.121094 17 5.5 C 17 6.878906 18.121094 8 19.5 8 C 20.878906 8 22 6.878906 22 5.5 C 22 4.121094 20.878906 3 19.5 3 Z M 14.375 6 C 13.5 6 12.546875 6.699219 11.375 7.5625 C 9.9375 8.621094 8.4375 9.75 7.84375 10.28125 C 7.523438 10.570313 7 11.117188 7 12.375 C 7 13.632813 7.9375 14.109375 8.96875 14.75 C 10.046875 15.421875 12.21875 16.78125 12.21875 16.78125 L 11.59375 21.71875 C 11.59375 21.71875 11.601563 22.867188 12.59375 23 C 13.585938 23.132813 13.875 22.0625 13.875 22.0625 C 13.875 22.0625 14.738281 17.601563 14.875 16.75 C 15.015625 15.871094 15.230469 15.285156 14.21875 14.5625 C 13.21875 13.851563 11.46875 12.90625 11.46875 12.90625 C 11.46875 12.90625 14.78125 10.3125 15 10.1875 C 15.25 10.046875 15.46875 9.828125 15.71875 10.15625 C 15.976563 10.492188 17.6875 12.75 17.6875 12.75 C 17.6875 12.75 17.9375 13 18.59375 13 L 23 13 C 23.550781 13 24 12.550781 24 12 C 24 11.449219 23.550781 11 23 11 L 18.8125 11 C 18.8125 11 16.671875 7.695313 16.25 6.96875 C 15.8125 6.21875 15.125 6 14.375 6 Z M 5 16 C 2.238281 16 0 18.238281 0 21 C 0 23.761719 2.238281 26 5 26 C 7.761719 26 10 23.761719 10 21 C 10 18.238281 7.761719 16 5 16 Z M 21 16 C 18.238281 16 16 18.238281 16 21 C 16 23.761719 18.238281 26 21 26 C 23.761719 26 26 23.761719 26 21 C 26 18.238281 23.761719 16 21 16 Z M 5 18 C 6.652344 18 8 19.347656 8 21 C 8 22.652344 6.652344 24 5 24 C 3.347656 24 2 22.652344 2 21 C 2 19.347656 3.347656 18 5 18 Z M 21 18 C 22.652344 18 24 19.347656 24 21 C 24 22.652344 22.652344 24 21 24 C 19.347656 24 18 22.652344 18 21 C 18 19.347656 19.347656 18 21 18 Z "/>
</g>
</svg>
