<svg xmlns="http://www.w3.org/2000/svg" xmlns:xlink="http://www.w3.org/1999/xlink" viewBox="0 0 26 26" version="1.1">
<path d="M 24.46875 0.992188 C 24.441406 0.460938 24.003906 0.0429688 23.46875 0.0429688 L 20.621094 0.0429688 C 20.101563 0.0429688 19.671875 0.4375 19.625 0.953125 L 18 19.269531 L 18 12 L 16 12 L 16 9 C 16 8.632813 15.796875 8.292969 15.472656 8.117188 C 15.148438 7.945313 14.753906 7.964844 14.445313 8.167969 L 8.695313 12 L 8 12 L 8 9 C 8 8.632813 7.796875 8.292969 7.472656 8.117188 C 7.148438 7.945313 6.75 7.964844 6.445313 8.167969 L 0.445313 12.167969 C 0.167969 12.355469 0 12.664063 0 13 L 0 25 C 0 25.554688 0.445313 26 1 26 L 25 26 C 25.007813 26 25.015625 26 25.019531 26 C 25.574219 26 25.96875 25.648438 25.96875 25.097656 C 25.96875 25.011719 24.46875 0.992188 24.46875 0.992188 Z M 5 14 L 5 17 L 3 17 L 3 14 Z M 10 14 L 10 17 L 8 17 L 8 14 Z M 15 14 L 15 17 L 13 17 L 13 14 Z M 5 19 L 5 22 L 3 22 L 3 19 Z M 10 19 L 10 22 L 8 22 L 8 19 Z M 15 19 L 15 22 L 13 22 L 13 19 Z "/>
</svg>
