<svg xmlns="http://www.w3.org/2000/svg" xmlns:xlink="http://www.w3.org/1999/xlink" viewBox="0 0 26 26" version="1.1" width="208px" height="208px">
<g id="surface1">
<path style=" " d="M 12 0 C 11.5 0 11 0.398438 11 1 L 11 1.1875 C 9.398438 1.488281 7.988281 2.101563 6.6875 3 L 5 3 C 4.398438 3 4 3.398438 4 4 L 4 5.6875 C 3.101563 6.988281 2.488281 8.398438 2.1875 10 L 2 10 C 1.5 10 1 10.398438 1 11 L 1 13 C 1 13.601563 1.398438 14 2 14 L 2.1875 14 C 2.488281 15.601563 3.101563 17.011719 4 18.3125 L 4 20 C 4 20.601563 4.398438 21 5 21 L 6.6875 21 C 6.8125 21.085938 6.9375 21.167969 7.0625 21.25 L 5.8125 24 L 4 24 L 4 26 L 10 26 L 10 24 L 9.125 24 L 9.8125 22.53125 C 10.199219 22.648438 10.589844 22.734375 11 22.8125 L 11 23 C 11 23.5 11.398438 24 12 24 L 14 24 C 14.5 24 15 23.601563 15 23 L 15 22.8125 C 15.410156 22.734375 15.800781 22.648438 16.1875 22.53125 L 16.875 24 L 16 24 L 16 26 L 22 26 L 22 24 L 20.1875 24 L 18.9375 21.25 C 19.0625 21.167969 19.1875 21.085938 19.3125 21 L 21 21 C 21.5 21 22 20.601563 22 20 L 22 18.40625 C 22.898438 17.007813 23.511719 15.601563 23.8125 14 L 24 14 C 24.5 14 25 13.601563 25 13 L 25 11 C 25 10.5 24.601563 10 24 10 L 23.8125 10 C 23.511719 8.398438 22.898438 6.988281 22 5.6875 L 22 4 C 22 3.5 21.601563 3 21 3 L 19.40625 3 C 18.007813 2.101563 16.601563 1.488281 15 1.1875 L 15 1 C 15 0.398438 14.601563 0 14 0 Z M 12 1 L 14 1 L 14 2 L 12 2 Z M 15 3 C 16.101563 3.300781 17.101563 3.710938 18 4.3125 L 18 6 C 18 6.601563 18.398438 7 19 7 L 20.59375 7 C 21.195313 7.898438 21.605469 8.898438 21.90625 10 C 21.40625 10 21 10.398438 21 11 L 21 13 C 21 13.601563 21.398438 14 22 14 C 21.800781 15.101563 21.289063 16.101563 20.6875 17 L 19 17 C 18.5 17 18 17.398438 18 18 L 18 19.21875 L 15.46875 13.71875 C 15.808594 13.234375 16 12.636719 16 12 C 16 10.34375 14.65625 9 13 9 C 11.34375 9 10 10.34375 10 12 C 10 12.636719 10.191406 13.234375 10.53125 13.71875 L 8 19.21875 L 8 18 C 8 17.5 7.601563 17 7 17 L 5.40625 17 C 4.804688 16.101563 4.394531 15.101563 4.09375 14 C 4.5625 13.953125 5 13.5625 5 13 L 5 11 C 5 10.5 4.601563 10 4 10 C 4.199219 8.898438 4.710938 7.898438 5.3125 7 L 7 7 C 7.5 7 8 6.601563 8 6 L 8 4.40625 C 8.898438 3.804688 9.898438 3.394531 11 3.09375 C 11.046875 3.5625 11.4375 4 12 4 L 14 4 C 14.5 4 15 3.601563 15 3 Z M 5 4 L 7 4 L 7 5 L 5 5 Z M 19 4 L 21 4 L 21 5 L 19 5 Z M 2 11 L 4 11 L 4 12 L 2 12 Z M 22 11 L 24 11 L 24 12 L 22 12 Z M 13 15.59375 L 15.40625 20.78125 C 15.273438 20.820313 15.136719 20.867188 15 20.90625 C 14.957031 20.363281 14.566406 20 14 20 L 12 20 C 11.5 20 11 20.398438 11 21 C 10.851563 20.960938 10.707031 20.917969 10.5625 20.875 Z M 5 18 L 7 18 L 7 19 L 5 19 Z M 19 18 L 21 18 L 21 19 L 19 19 Z M 12 21 L 14 21 L 14 22 L 12 22 Z "/>
</g>
</svg>
