<svg xmlns="http://www.w3.org/2000/svg" xmlns:xlink="http://www.w3.org/1999/xlink" viewBox="0 0 26 26" version="1.1" width="208px" height="208px">
<g id="surface1">
<path style=" " d="M 7 0 C 7 0 6.113281 2.507813 5.3125 2.90625 C 4.511719 3.207031 2.09375 2 2.09375 2 C 2.09375 2 3.207031 4.511719 2.90625 5.3125 C 2.707031 5.914063 0 7 0 7 C 0 7 2.613281 7.894531 2.8125 8.59375 C 2.914063 8.894531 2.789063 9.40625 2.6875 9.90625 L 4.8125 9.3125 C 4.210938 8.710938 3.8125 7.898438 3.8125 7 C 3.8125 5.199219 5.199219 3.8125 7 3.8125 C 8.800781 3.8125 10.1875 5.199219 10.1875 7 C 10.1875 7.5 10.113281 8.007813 9.8125 8.40625 C 10.414063 8.304688 10.90625 8.289063 11.40625 8.1875 C 12.304688 7.6875 14 7 14 7 C 14 7 11.386719 6.007813 11.1875 5.40625 C 10.886719 4.40625 12 2.09375 12 2.09375 C 12 2.09375 9.613281 3.304688 8.8125 2.90625 C 8.113281 2.507813 7 0 7 0 Z M 17 9 C 17 9 7 8.898438 0 12 L 0 19 C 8.199219 10.699219 17 9 17 9 Z M 20.5 9.3125 C 20.5 9.3125 10.101563 11.800781 0 22 L 0 26 L 7 26 C 13.699219 13 20.5 9.3125 20.5 9.3125 Z M 24 9.6875 C 24 9.6875 15.101563 14.699219 10 26 L 18 26 C 19.800781 17.800781 24 9.6875 24 9.6875 Z M 26 10 C 26 10 23.699219 13.699219 21 26 L 26 26 Z "/>
</g>
</svg>
