<svg xmlns="http://www.w3.org/2000/svg" xmlns:xlink="http://www.w3.org/1999/xlink" viewBox="0 0 26 26" version="1.1" width="208px" height="208px">
<g id="surface1">
<path style=" " d="M 22 0 C 15.101563 1.398438 16.800781 7.605469 15.5 9.40625 C 14.398438 10.804688 12.804688 9.09375 11.40625 9.09375 C 12.507813 11.894531 11 16.199219 11 18.5 C 11 25.199219 17 26 17 26 C 17 26 14 23 14 18 C 18.898438 20.601563 14.898438 15.199219 20 13 C 18.5 17.898438 19.800781 22.300781 22 18 C 22 18 23 18.488281 23 21.1875 C 23 23.386719 21 26 21 26 C 24.101563 25.398438 26 21.113281 26 17.3125 C 26 13.8125 24.601563 8.507813 23 6.40625 C 22.898438 7.605469 22.011719 9.210938 21.3125 8.8125 C 19.613281 7.8125 20.199219 2.101563 22 0 Z M 8 4 L 0 7 L 0 26 L 13.3125 26 C 11.414063 24.699219 9.59375 22.300781 9.59375 18.5 C 9.59375 17.601563 9.800781 16.601563 10 15.5 C 10.300781 13.601563 10.695313 11.195313 10.09375 9.59375 L 9.3125 7.59375 C 9.3125 7.59375 12.007813 6.601563 14.40625 8.5 C 14.605469 8.300781 14.710938 7.414063 14.8125 6.8125 L 14.8125 6.59375 Z M 3 10 L 6 10 L 6 13 L 3 13 Z M 3 15 L 6 15 L 6 18 L 3 18 Z M 3 20 L 6 20 L 6 23 L 3 23 Z "/>
</g>
</svg>
