<svg xmlns="http://www.w3.org/2000/svg" xmlns:xlink="http://www.w3.org/1999/xlink" viewBox="0 0 26 26" version="1.1" width="208px" height="208px">
<g id="surface1">
<path style=" " d="M 18.4375 0.09375 C 17.875 0.210938 17.347656 1.699219 17.03125 2.375 C 15.644531 5.351563 12.65625 6.28125 12.65625 6.28125 C 12.65625 6.28125 10.714844 6.875 10 6.84375 C 9.53125 6.824219 9.164063 6.820313 8.625 7.03125 C 8.082031 7.242188 6.109375 8.625 5.375 11.71875 C 4.480469 15.492188 5.199219 16.9375 5.8125 16.9375 C 6.3125 16.9375 6.132813 14.449219 6.78125 12.59375 C 7.390625 10.851563 8.5 9.65625 8.5 9.65625 C 8.5 9.65625 9.054688 13.898438 7.40625 17.03125 C 5.828125 20.039063 2.058594 19.308594 2.125 20.3125 C 2.195313 21.441406 6.523438 20.757813 8 19.71875 C 10.105469 18.238281 10.875 15.8125 10.875 15.8125 C 10.875 15.8125 11.277344 18.40625 10.5 20.1875 C 8.953125 23.734375 6.679688 24.769531 7.1875 25.625 C 7.664063 26.425781 11.792969 23.339844 13 20.34375 C 13.433594 19.269531 13.761719 16.757813 13.90625 14.0625 C 14.011719 12.144531 14.03125 10.125 13.9375 8.4375 C 13.9375 8.4375 16.644531 7.085938 18.0625 3.96875 C 18.332031 3.375 19.25 0.4375 18.6875 0.125 C 18.605469 0.078125 18.519531 0.078125 18.4375 0.09375 Z M 23 0.1875 C 21.445313 0.1875 20.1875 0.773438 20.1875 1.5 C 20.1875 2.226563 21.445313 2.8125 23 2.8125 C 24.554688 2.8125 25.8125 2.226563 25.8125 1.5 C 25.8125 0.773438 24.554688 0.1875 23 0.1875 Z M 10.6875 1.1875 C 9.410156 1.1875 8.375 2.222656 8.375 3.5 C 8.375 4.777344 9.410156 5.8125 10.6875 5.8125 C 11.964844 5.8125 13 4.777344 13 3.5 C 13 2.222656 11.964844 1.1875 10.6875 1.1875 Z "/>
</g>
</svg>
