<svg xmlns="http://www.w3.org/2000/svg" xmlns:xlink="http://www.w3.org/1999/xlink" viewBox="0 0 26 26" version="1.1" width="208px" height="208px">
<g id="surface1">
<path style=" " d="M 15 0.09375 C 15 0.09375 5 5.207031 5 13.90625 C 5 19.40625 11 21 11 21 C 11 21 9 18 9 14 C 9 9 13 6 13 6 C 11.699219 12 14 14 14 14 C 14 14 13.6875 12.101563 14.6875 11 C 15.289063 13.601563 17 14.695313 17 17.09375 C 17 18.894531 15.3125 21 15.3125 21 C 18.113281 20.101563 20 17.101563 20 14 C 20 8.199219 13.800781 5.09375 15 0.09375 Z M 5.6875 22 C 4.789063 22 4 22.789063 4 23.6875 L 4 26 L 22 26 L 22 23.6875 C 22 22.789063 21.210938 22 20.3125 22 L 20 22 L 20 24 L 18 24 L 18 22 L 16 22 L 16 24 L 14 24 L 14 22 L 12 22 L 12 24 L 10 24 L 10 22 L 8 22 L 8 24 L 6 24 L 6 22 Z "/>
</g>
</svg>
