<svg xmlns="http://www.w3.org/2000/svg" xmlns:xlink="http://www.w3.org/1999/xlink" viewBox="0 0 26 26" version="1.1" width="208px" height="208px">
<g id="surface1">
<path style=" " d="M 16.90625 0.03125 C 16.777344 0.0507813 16.648438 0.113281 16.53125 0.1875 L 10.59375 3.9375 C 10.125 4.234375 9.984375 4.84375 10.28125 5.3125 C 10.578125 5.78125 11.1875 5.921875 11.65625 5.625 L 17.59375 1.875 C 18.0625 1.578125 18.203125 0.96875 17.90625 0.5 C 17.6875 0.148438 17.289063 -0.03125 16.90625 0.03125 Z M 18.125 2.71875 L 12.21875 6.46875 C 12.21875 6.46875 11.964844 7.417969 13.0625 9.5625 L 1.28125 16.53125 C -0.0859375 17.335938 -0.195313 18.34375 0.375 19.25 C 0.945313 20.15625 1.933594 20.546875 3.25 19.65625 L 14.59375 12 C 16.046875 13.886719 17 14.0625 17 14.0625 L 22.9375 10.34375 C 22.9375 10.34375 23.296875 9.042969 21.375 6 C 19.453125 2.957031 18.125 2.71875 18.125 2.71875 Z M 23.84375 11.03125 C 23.714844 11.050781 23.585938 11.113281 23.46875 11.1875 L 17.53125 14.90625 C 17.0625 15.203125 16.921875 15.8125 17.21875 16.28125 C 17.515625 16.75 18.15625 16.890625 18.625 16.59375 L 24.53125 12.875 C 25 12.578125 25.140625 11.96875 24.84375 11.5 C 24.621094 11.148438 24.226563 10.96875 23.84375 11.03125 Z M 14 24 C 13.445313 24 13 24.449219 13 25 L 13 26 L 26 26 L 26 25 C 26 24.449219 25.554688 24 25 24 Z "/>
</g>
</svg>
