<svg xmlns="http://www.w3.org/2000/svg" xmlns:xlink="http://www.w3.org/1999/xlink" viewBox="0 0 26 26" version="1.1" width="208px" height="208px">
<g id="surface1">
<path style=" " d="M 14 0 C 12.34375 0 11 1.34375 11 3 C 11 4.65625 12.34375 6 14 6 C 15.65625 6 17 4.65625 17 3 C 17 1.34375 15.65625 0 14 0 Z M 9.40625 0.5 C 9.40625 0.5 4.007813 1.792969 2.90625 8.59375 L 6.3125 7.09375 C 6.011719 1.894531 9.40625 0.5 9.40625 0.5 Z M 17.3125 0.6875 C 17.710938 1.386719 18 2.101563 18 3 L 18 3.40625 C 18.398438 3.90625 18.898438 4.710938 19 5.3125 L 15.59375 6.59375 L 15.5 6.59375 L 14.8125 7 C 13.914063 7.300781 13.511719 8.414063 13.8125 9.3125 L 16.09375 15.09375 L 16.3125 19.3125 L 14.1875 24.09375 C 13.886719 24.792969 14.207031 25.605469 14.90625 25.90625 C 15.605469 26.207031 16.386719 25.886719 16.6875 25.1875 L 19 19.6875 L 19.8125 14.6875 C 19.914063 13.789063 19.894531 12.992188 19.59375 12.09375 L 18.3125 7.90625 L 20.5 6.90625 C 20.800781 6.804688 21.101563 6.398438 21 6 C 20 2.601563 18.113281 1.1875 17.3125 0.6875 Z M 12.3125 6.5 L 4.40625 9.40625 C 3.40625 9.804688 2.789063 10.992188 3.1875 12.09375 L 3.5 12.8125 C 3.898438 13.8125 5.09375 14.398438 6.09375 14 C 6.292969 13.898438 6.40625 13.707031 6.40625 13.40625 L 5.3125 11.3125 C 5.210938 11.011719 5.292969 10.695313 5.59375 10.59375 L 12.8125 7.6875 Z M 20.6875 15.8125 L 19.90625 20.5 L 21.59375 25.09375 C 21.792969 25.695313 22.488281 26.113281 23.1875 25.8125 C 23.789063 25.613281 24.207031 24.789063 23.90625 24.1875 Z "/>
</g>
</svg>
