<svg xmlns="http://www.w3.org/2000/svg" xmlns:xlink="http://www.w3.org/1999/xlink" viewBox="0 0 26 26" version="1.1" width="208px" height="208px">
<g id="surface1">
<path style=" " d="M 23.3125 0 L 19 14.90625 C 18.300781 17.304688 16.09375 19 13.59375 19 L 4.5 19 C 2.601563 19 1 20.601563 1 22.5 C 1 24.398438 2.601563 26 4.5 26 L 12.3125 26 C 15.710938 26 18.695313 23.800781 19.59375 20.5 L 20 19 L 25.40625 0 Z M 7 4 C 5.207031 4 3.582031 4.335938 2.3125 4.96875 C 1.042969 5.601563 0 6.632813 0 8 L 0 10.6875 C 0 12.789063 2 15 7 15 C 12 15 14 12.789063 14 10.6875 L 14 8 C 14 6.632813 12.957031 5.601563 11.6875 4.96875 C 10.417969 4.335938 8.792969 4 7 4 Z M 7 6 C 8.523438 6 9.878906 6.328125 10.78125 6.78125 C 11.683594 7.234375 12 7.710938 12 8 C 12 8.289063 11.683594 8.765625 10.78125 9.21875 C 9.878906 9.671875 8.523438 10 7 10 C 5.476563 10 4.121094 9.671875 3.21875 9.21875 C 2.316406 8.765625 2 8.289063 2 8 C 2 7.710938 2.316406 7.234375 3.21875 6.78125 C 4.121094 6.328125 5.476563 6 7 6 Z M 6 21 L 13 21 L 13 24 L 6 24 Z "/>
</g>
</svg>
