<svg xmlns="http://www.w3.org/2000/svg" xmlns:xlink="http://www.w3.org/1999/xlink" viewBox="0 0 26 26" version="1.1">
<path d="M 5 0 L 0 5 L 10 5 Z M 0 6 L 0 26 L 2 26 L 2 16 L 8 16 L 8 18 L 3 18 L 3 20 L 8 20 L 8 22 L 3 22 L 3 24 L 8 24 L 8 26 L 10 26 L 10 6 Z M 5 8 C 6.699219 8 8 9.300781 8 11 C 8 12.699219 6.699219 14 5 14 C 3.300781 14 2 12.699219 2 11 C 2 9.300781 3.300781 8 5 8 Z M 11 14 L 11 19.1875 C 18 20.386719 13.101563 26 26 26 L 26 24.6875 C 26 23.789063 25.304688 22.90625 24.40625 22.90625 C 16.605469 22.90625 19.5 14 11 14 Z "/>
</svg>
