<svg xmlns="http://www.w3.org/2000/svg" xmlns:xlink="http://www.w3.org/1999/xlink" viewBox="0 0 26 26" version="1.1">
<path d="M 2.8125 6.09375 C 2.527344 6.148438 2.28125 6.328125 2.136719 6.578125 C 1.992188 6.832031 1.964844 7.132813 2.0625 7.40625 L 2.90625 9.90625 L 1.4375 12.09375 L 1 12.09375 C 0.398438 12.09375 0 12.492188 0 13.09375 L 0 16.09375 C 0 18.367188 1.167969 20.007813 2.46875 21 C 1.929688 21.136719 1.398438 21.1875 1 21.1875 C 0.601563 21.1875 0.300781 21.195313 0 21.09375 L 0 22.90625 C 0.300781 22.90625 0.601563 23 1 23 C 2.699219 23 3.398438 22.59375 4 22.09375 C 4.898438 22.792969 6.199219 23 7 23 C 7.800781 23 9.101563 22.792969 10 22.09375 C 10.898438 22.792969 12.199219 23 13 23 C 13.800781 23 15.101563 22.792969 16 22.09375 C 16.898438 22.792969 18.199219 23 19 23 C 19.800781 23 21.101563 22.792969 22 22.09375 C 22.898438 22.792969 24.199219 23 25 23 C 25.398438 23 25.699219 22.90625 26 22.90625 L 26 21 C 25.699219 21.101563 25.398438 21.1875 25 21.1875 C 24.199219 21.1875 22.898438 21.011719 22 20.3125 C 21.265625 20.886719 20.277344 21.089844 19.5 21.15625 C 22.417969 19.8125 25.082031 17.09375 25.90625 13.3125 C 26.007813 13.011719 26.011719 12.699219 25.8125 12.5 C 25.613281 12.199219 25.300781 12.09375 25 12.09375 L 21.46875 12.09375 L 16.78125 6.46875 C 16.589844 6.230469 16.304688 6.09375 16 6.09375 L 11.3125 6.09375 C 10.824219 6.085938 10.402344 6.429688 10.3125 6.90625 L 9.875 9.09375 L 7.5625 9.09375 L 5.84375 6.53125 C 5.652344 6.253906 5.335938 6.089844 5 6.09375 L 3 6.09375 C 2.96875 6.09375 2.9375 6.09375 2.90625 6.09375 C 2.875 6.09375 2.84375 6.09375 2.8125 6.09375 Z M 12.125 8.09375 L 15.5 8.09375 L 16.34375 9.09375 L 11.9375 9.09375 Z M 4.5625 11.09375 L 17.90625 11.09375 C 17.9375 11.09375 17.96875 11.09375 18 11.09375 L 18.84375 12.09375 L 3.875 12.09375 Z M 2.65625 14.09375 L 18.65625 14.09375 L 18 15.09375 L 3 15.09375 Z M 20.1875 15.09375 C 20.585938 15.09375 20.59375 15.3125 20.59375 15.3125 L 20.59375 15.6875 C 20.59375 15.6875 20.601563 15.90625 21 15.90625 C 21.398438 15.90625 21.40625 15.6875 21.40625 15.6875 L 21.40625 15.3125 C 21.40625 15.3125 21.414063 15.09375 21.8125 15.09375 C 22.113281 15.09375 22.1875 15.3125 22.1875 15.3125 C 22.1875 15.3125 22 15.800781 22 16 C 22 16.5 21.5 16.5 21.5 16.5 L 20.40625 16.5 C 20.40625 16.5 19.8125 16.5 19.8125 16 L 19.8125 15.3125 C 19.8125 15.3125 19.789063 15.09375 20.1875 15.09375 Z M 4 23.3125 C 3.101563 24.011719 1.800781 24.1875 1 24.1875 C 0.601563 24.1875 0.300781 24.195313 0 24.09375 L 0 25.90625 C 0.300781 25.90625 0.601563 26 1 26 C 2.699219 26 3.398438 25.59375 4 25.09375 C 4.898438 25.792969 6.199219 26 7 26 C 7.800781 26 9.101563 25.792969 10 25.09375 C 10.898438 25.792969 12.199219 26 13 26 C 13.800781 26 15.101563 25.792969 16 25.09375 C 16.898438 25.792969 18.199219 26 19 26 C 19.800781 26 21.101563 25.792969 22 25.09375 C 22.898438 25.792969 24.199219 26 25 26 C 25.398438 26 25.699219 25.90625 26 25.90625 L 26 24 C 25.699219 24.101563 25.398438 24.1875 25 24.1875 C 24.199219 24.1875 22.898438 24.011719 22 23.3125 C 21.101563 24.011719 19.800781 24.1875 19 24.1875 C 18.199219 24.1875 16.898438 24.011719 16 23.3125 C 15.101563 24.011719 13.800781 24.1875 13 24.1875 C 12.199219 24.1875 10.898438 24.011719 10 23.3125 C 9.101563 24.011719 7.800781 24.1875 7 24.1875 C 6.199219 24.1875 4.898438 24.011719 4 23.3125 Z "/>
</svg>
