<svg xmlns="http://www.w3.org/2000/svg" xmlns:xlink="http://www.w3.org/1999/xlink" viewBox="0 0 26 26" version="1.1">
<path d="M 21.5 0 C 20.121094 0 19 1.121094 19 2.5 C 19 3.878906 20.121094 5 21.5 5 C 22.878906 5 24 3.878906 24 2.5 C 24 1.121094 22.878906 0 21.5 0 Z M 12 2 C 11.789063 2 11.621094 2.066406 11.46875 2.15625 L 7.90625 3.8125 C 7.40625 4.011719 7.199219 4.59375 7.5 5.09375 C 7.800781 5.59375 8.3125 5.792969 8.8125 5.59375 L 12.21875 4 L 14.1875 4 L 10.5 7.6875 C 9.941406 8.246094 9.78125 9.011719 10 9.6875 C 10.054688 10.039063 10.226563 10.363281 10.5 10.59375 L 13.90625 13.09375 L 13.90625 18.40625 C 13.90625 19.207031 14.605469 19.90625 15.40625 19.90625 C 16.207031 19.90625 16.90625 19.207031 16.90625 18.40625 L 16.90625 12.40625 C 17.007813 12.007813 16.804688 11.613281 16.40625 11.3125 L 14.1875 9.625 L 18.40625 5.40625 C 19.207031 4.707031 19.207031 3.394531 18.40625 2.59375 C 18.007813 2.195313 17.5 2 17 2 Z M 18 7 L 16 9 L 20 9 C 20.601563 9 21 8.601563 21 8 C 21 7.398438 20.601563 7 20 7 Z M 9.40625 11.40625 L 6.90625 14 L 3.5 14 C 2.699219 14 2 14.699219 2 15.5 C 2 16.300781 2.699219 17 3.5 17 L 7.3125 17 C 7.8125 17 8.386719 16.804688 8.6875 16.40625 L 11.8125 13.3125 Z M 4.78125 20 C 4.34375 20.074219 4.007813 20.429688 3.957031 20.871094 C 3.910156 21.3125 4.152344 21.734375 4.5625 21.90625 L 6.15625 22.6875 L 6.28125 22.75 C 6.582031 22.851563 6.976563 23 7.5 23 L 18.5 23 C 19.023438 23 19.417969 22.851563 19.71875 22.75 L 19.84375 22.6875 L 21.4375 21.90625 C 21.9375 21.664063 22.148438 21.0625 21.90625 20.5625 C 21.664063 20.0625 21.0625 19.851563 20.5625 20.09375 L 19.09375 20.84375 L 19.03125 20.875 C 18.785156 20.953125 18.570313 21 18.5 21 L 7.5 21 C 7.429688 21 7.214844 20.953125 6.96875 20.875 C 6.9375 20.863281 6.941406 20.855469 6.90625 20.84375 L 5.4375 20.09375 C 5.261719 20.007813 5.066406 19.976563 4.875 20 C 4.84375 20 4.8125 20 4.78125 20 Z M 17.5 23 C 16.671875 23 16 23.671875 16 24.5 C 16 25.328125 16.671875 26 17.5 26 C 18.328125 26 19 25.328125 19 24.5 C 19 23.671875 18.328125 23 17.5 23 Z M 8.5 23 C 7.671875 23 7 23.671875 7 24.5 C 7 25.328125 7.671875 26 8.5 26 C 9.328125 26 10 25.328125 10 24.5 C 10 23.671875 9.328125 23 8.5 23 Z "/>
</svg>
