<svg xmlns="http://www.w3.org/2000/svg" xmlns:xlink="http://www.w3.org/1999/xlink" viewBox="0 0 26 26" version="1.1" width="208px" height="208px">
<g id="surface1">
<path style=" " d="M 13 0.1875 C 5.925781 0.1875 0.1875 5.925781 0.1875 13 C 0.1875 20.074219 5.925781 25.8125 13 25.8125 C 20.074219 25.8125 25.8125 20.074219 25.8125 13 C 25.8125 5.925781 20.074219 0.1875 13 0.1875 Z M 9.6875 2.71875 L 9.15625 3.6875 L 13 5.34375 L 16.84375 3.6875 L 16.3125 2.71875 C 18.527344 3.429688 20.414063 4.84375 21.75 6.6875 L 20.65625 6.46875 L 20.28125 10.625 L 23.03125 13.78125 L 23.8125 12.9375 C 23.8125 12.957031 23.8125 12.980469 23.8125 13 C 23.8125 15.402344 23.019531 17.609375 21.6875 19.40625 L 21.5625 18.28125 L 17.5 19.1875 L 15.375 22.78125 L 16.375 23.25 C 15.3125 23.597656 14.175781 23.8125 13 23.8125 C 11.824219 23.8125 10.6875 23.597656 9.625 23.25 L 10.625 22.78125 L 8.5 19.1875 L 4.4375 18.28125 L 4.3125 19.40625 C 2.980469 17.609375 2.1875 15.402344 2.1875 13 C 2.1875 12.980469 2.1875 12.957031 2.1875 12.9375 L 2.96875 13.78125 L 5.71875 10.625 L 5.34375 6.46875 L 4.25 6.6875 C 5.585938 4.84375 7.472656 3.429688 9.6875 2.71875 Z M 13 8.71875 L 8.5 12 L 10.21875 17.28125 L 15.78125 17.28125 L 17.5 12 Z "/>
</g>
</svg>
