<svg xmlns="http://www.w3.org/2000/svg" xmlns:xlink="http://www.w3.org/1999/xlink" viewBox="0 0 26 26" version="1.1">
<path d="M 15.535156 14.894531 L 11.105469 10.464844 C 12.347656 9.535156 14.117188 9.621094 15.246094 10.753906 C 16.378906 11.882813 16.464844 13.648438 15.535156 14.894531 Z M 4.652344 16.855469 L 2.726563 18.78125 L 7.222656 23.277344 L 9.148438 21.347656 Z M 21.347656 9.148438 L 23.273438 7.222656 L 18.777344 2.726563 L 16.851563 4.652344 Z M 0.800781 16.851563 L 2.082031 18.136719 L 4.652344 15.570313 L 10.429688 21.347656 L 7.863281 23.917969 L 9.148438 25.199219 C 10.210938 26.265625 11.933594 26.265625 13 25.199219 L 18.777344 19.421875 L 15.535156 16.179688 C 13.929688 17.460938 11.59375 17.375 10.109375 15.890625 C 8.625 14.40625 8.539063 12.070313 9.820313 10.464844 L 6.578125 7.222656 L 0.800781 13 C -0.265625 14.0625 -0.265625 15.789063 0.800781 16.851563 Z M 10.753906 15.246094 C 11.882813 16.378906 13.648438 16.464844 14.894531 15.535156 L 10.464844 11.105469 C 9.535156 12.351563 9.621094 14.117188 10.753906 15.246094 Z M 13 0.800781 L 7.222656 6.578125 L 10.464844 9.820313 C 12.066406 8.542969 14.402344 8.625 15.890625 10.109375 C 17.375 11.59375 17.457031 13.929688 16.179688 15.535156 L 19.421875 18.777344 L 25.199219 13 C 26.265625 11.9375 26.265625 10.210938 25.199219 9.148438 L 23.917969 7.863281 L 21.347656 10.429688 L 15.570313 4.652344 L 18.136719 2.085938 L 16.851563 0.800781 C 15.789063 -0.265625 14.0625 -0.265625 13 0.800781 Z "/>
</svg>
