<svg xmlns="http://www.w3.org/2000/svg" xmlns:xlink="http://www.w3.org/1999/xlink" viewBox="0 0 26 26" version="1.1" width="208px" height="208px">
<g id="surface1">
<path style=" " d="M 5 0 C 3.34375 0 2 1.34375 2 3 C 2 4.65625 3.34375 6 5 6 C 6.65625 6 8 4.65625 8 3 C 8 1.34375 6.65625 0 5 0 Z M 4 7 C 1.800781 7 0 8.800781 0 11 L 0 15.8125 C 0 16.613281 0.394531 17.292969 1.09375 17.59375 L 1.90625 17.96875 L 2.8125 26 L 7.1875 26 L 8.09375 17.96875 L 8.90625 17.59375 C 9.605469 17.195313 10 16.511719 10 15.8125 L 10 11 C 10 8.800781 8.199219 7 6 7 Z M 21 9.1875 L 18 15 L 26 15 C 26 12.199219 23.898438 9.886719 21 9.1875 Z M 13 16 C 13 19.300781 15.898438 22 19.5 22 C 23.101563 22 26 19.300781 26 16 Z M 16 22 C 14.894531 22 14 22.894531 14 24 C 14 25.105469 14.894531 26 16 26 C 17.105469 26 18 25.105469 18 24 C 18 22.894531 17.105469 22 16 22 Z M 23 22 C 21.894531 22 21 22.894531 21 24 C 21 25.105469 21.894531 26 23 26 C 24.105469 26 25 25.105469 25 24 C 25 22.894531 24.105469 22 23 22 Z "/>
</g>
</svg>
