<svg xmlns="http://www.w3.org/2000/svg" xmlns:xlink="http://www.w3.org/1999/xlink" viewBox="0 0 26 26" version="1.1" width="208px" height="208px">
<g id="surface1">
<path style=" " d="M 23.445313 14.027344 L 26 13 L 23.445313 11.972656 C 21.226563 11.078125 20.175781 8.539063 21.113281 6.339844 L 22.191406 3.808594 L 19.660156 4.886719 C 17.460938 5.824219 14.921875 4.773438 14.027344 2.554688 L 13 0 L 11.972656 2.554688 C 11.078125 4.773438 8.539063 5.824219 6.339844 4.886719 L 3.808594 3.808594 L 4.886719 6.339844 C 5.824219 8.539063 4.773438 11.078125 2.554688 11.972656 L 0 13 L 2.554688 14.027344 C 4.773438 14.921875 5.824219 17.460938 4.886719 19.660156 L 3.808594 22.191406 L 6.339844 21.113281 C 8.539063 20.175781 11.078125 21.226563 11.972656 23.445313 L 13 26 L 14.027344 23.445313 C 14.921875 21.226563 17.460938 20.175781 19.660156 21.113281 L 22.191406 22.191406 L 21.113281 19.660156 C 20.175781 17.460938 21.226563 14.921875 23.445313 14.027344 Z M 13 19 C 9.6875 19 7 16.3125 7 13 C 7 9.6875 9.6875 7 13 7 C 16.3125 7 19 9.6875 19 13 C 19 16.3125 16.3125 19 13 19 Z "/>
</g>
</svg>
