<svg xmlns="http://www.w3.org/2000/svg" xmlns:xlink="http://www.w3.org/1999/xlink" viewBox="0 0 26 26" version="1.1" width="208px" height="208px">
<g id="surface1">
<path style=" " d="M 10.9375 6.59375 C 10.6875 6.609375 10.421875 6.703125 10.15625 6.84375 C 9.597656 7.140625 5.949219 8.953125 4 10.09375 C 2.492188 10.972656 3.128906 12.160156 4.6875 11.5625 C 5.300781 11.328125 9.054688 9.878906 9.8125 9.625 C 10.570313 9.371094 10.78125 10.28125 10.78125 10.28125 L 11.78125 12.53125 C 11.78125 12.53125 6.316406 15.878906 5.65625 16.21875 C 6.96875 18.007813 13.226563 14.9375 16.1875 14.9375 C 16.828125 14.9375 16.28125 13.96875 16.28125 13.96875 C 16.28125 13.96875 12.992188 8.890625 12.125 7.40625 C 11.753906 6.769531 11.355469 6.570313 10.9375 6.59375 Z M 20 8.1875 C 18.445313 8.1875 17.1875 9.445313 17.1875 11 C 17.1875 12.554688 18.445313 13.8125 20 13.8125 C 21.554688 13.8125 22.8125 12.554688 22.8125 11 C 22.8125 9.445313 21.554688 8.1875 20 8.1875 Z M 0.0625 16.40625 C 0.0625 16.40625 1.972656 20.875 7.8125 20.875 C 14.375 20.875 14.679688 18.9375 19.09375 18.9375 C 23.277344 18.9375 25.875 19.4375 25.875 19.4375 C 25.875 19.4375 22.898438 16.8125 19.09375 16.8125 C 15.285156 16.8125 12.011719 18.71875 7.8125 18.71875 C 2.785156 18.71875 0.0625 16.40625 0.0625 16.40625 Z "/>
</g>
</svg>
