<svg xmlns="http://www.w3.org/2000/svg" xmlns:xlink="http://www.w3.org/1999/xlink" viewBox="0 0 26 26" version="1.1">
<path d="M 3.40625 2 C 2.804688 2 2.40625 2.398438 2.40625 3 L 2.40625 10.1875 C 1.832031 10.484375 1.28125 10.828125 0.78125 11.21875 C 0.347656 11.5625 0.28125 12.195313 0.625 12.625 C 0.96875 13.058594 1.601563 13.125 2.03125 12.78125 C 3.285156 11.796875 4.75 11.1875 6.40625 11.1875 C 10.164063 11.1875 13.1875 14.242188 13.1875 18 C 13.183594 18.359375 13.371094 18.695313 13.683594 18.878906 C 13.996094 19.058594 14.378906 19.058594 14.691406 18.878906 C 15.003906 18.695313 15.191406 18.359375 15.1875 18 C 15.1875 17.664063 15.160156 17.328125 15.125 17 L 18.09375 17 C 17.195313 17.695313 16.59375 18.773438 16.59375 20 C 16.59375 22.101563 18.304688 23.8125 20.40625 23.8125 C 22.507813 23.8125 24.1875 22.101563 24.1875 20 C 24.1875 18.757813 23.605469 17.660156 22.6875 16.96875 C 23.183594 16.867188 23.644531 16.503906 23.8125 16 L 25.3125 12 C 25.414063 11.398438 25.195313 11 24.59375 11 L 19.40625 11 L 19.40625 7 C 19.40625 4.898438 20.40625 5 20.40625 5 L 20.40625 4 C 19.207031 4 17.40625 4.398438 17.40625 7 L 17.40625 11 L 14.40625 11 L 12.40625 3 C 12.304688 2.5 12.007813 2 11.40625 2 Z M 4.40625 4 L 10.59375 4 L 11.90625 9 L 4.40625 9 Z M 5.78125 11.96875 L 5.1875 12.0625 L 5.15625 12.0625 L 5.03125 12.125 L 5.09375 12.34375 C 4.761719 12.417969 4.460938 12.527344 4.15625 12.65625 L 4.03125 12.4375 L 3.53125 12.6875 L 3.5 12.6875 L 3.125 12.90625 L 3.25 13.125 C 2.96875 13.308594 2.714844 13.523438 2.46875 13.75 L 2.3125 13.5625 L 2.125 13.71875 L 1.75 14.15625 L 1.71875 14.15625 L 1.59375 14.34375 L 1.8125 14.5 C 1.613281 14.761719 1.433594 15.050781 1.28125 15.34375 L 1.03125 15.21875 L 0.84375 15.625 L 0.8125 15.65625 L 0.625 16.15625 L 0.875 16.25 C 0.777344 16.5625 0.703125 16.886719 0.65625 17.21875 L 0.40625 17.1875 L 0.375 17.375 L 0.375 17.40625 L 0.34375 18 L 0.375 18.21875 L 0.59375 18.21875 C 0.605469 18.566406 0.679688 18.890625 0.75 19.21875 L 0.5 19.28125 L 0.625 19.78125 L 0.625 19.8125 L 0.78125 20.25 L 1.03125 20.15625 C 1.15625 20.46875 1.292969 20.78125 1.46875 21.0625 L 1.25 21.1875 L 1.375 21.375 L 1.375 21.40625 L 1.71875 21.84375 L 1.75 21.84375 L 1.875 22.03125 L 2.09375 21.84375 C 2.316406 22.09375 2.550781 22.324219 2.8125 22.53125 L 2.65625 22.75 L 3 23 L 3.03125 23.03125 L 3.5 23.3125 L 3.625 23.09375 C 3.914063 23.25 4.246094 23.363281 4.5625 23.46875 L 4.46875 23.71875 L 4.59375 23.78125 L 4.625 23.78125 L 5.15625 23.9375 L 5.1875 23.9375 L 5.46875 23.96875 L 5.5 23.71875 C 5.792969 23.765625 6.101563 23.8125 6.40625 23.8125 C 6.449219 23.8125 6.488281 23.8125 6.53125 23.8125 L 6.53125 24.03125 L 7.03125 24.03125 L 7.53125 23.9375 L 7.5 23.6875 C 7.824219 23.625 8.136719 23.519531 8.4375 23.40625 L 8.53125 23.65625 L 8.75 23.59375 L 8.78125 23.5625 L 9.28125 23.3125 L 9.5 23.1875 L 9.34375 22.96875 C 9.628906 22.800781 9.90625 22.617188 10.15625 22.40625 L 10.34375 22.59375 L 10.65625 22.28125 L 10.6875 22.28125 L 11.0625 21.84375 L 10.875 21.6875 C 11.082031 21.4375 11.273438 21.160156 11.4375 20.875 L 11.65625 21 L 11.71875 20.90625 L 11.71875 20.875 L 11.96875 20.375 L 11.96875 20.34375 L 12.09375 20.03125 L 11.84375 19.9375 C 11.953125 19.632813 12.066406 19.324219 12.125 19 L 12.34375 19.03125 L 12.40625 18.625 L 12.40625 18.59375 L 12.4375 18 L 12.4375 17.5625 L 12.15625 17.59375 C 12.132813 17.25 12.113281 16.917969 12.03125 16.59375 L 12.25 16.53125 L 12.1875 16.21875 L 12.1875 16.1875 L 11.96875 15.65625 L 11.96875 15.625 L 11.90625 15.53125 L 11.6875 15.625 C 11.550781 15.324219 11.402344 15.019531 11.21875 14.75 L 11.4375 14.625 L 11.40625 14.59375 L 11.0625 14.15625 L 10.78125 13.8125 L 10.59375 14 C 10.359375 13.753906 10.117188 13.515625 9.84375 13.3125 L 9.96875 13.125 L 9.78125 13 L 9.78125 12.96875 L 9.28125 12.6875 L 9.09375 12.59375 L 8.96875 12.8125 C 8.675781 12.667969 8.378906 12.53125 8.0625 12.4375 L 8.125 12.1875 L 7.625 12.0625 L 7.59375 12.0625 L 7.125 12 L 7.09375 12.21875 C 6.867188 12.191406 6.640625 12.1875 6.40625 12.1875 C 6.289063 12.1875 6.175781 12.210938 6.0625 12.21875 L 6.0625 11.96875 Z M 6.40625 14.1875 C 8.507813 14.1875 10.1875 15.898438 10.1875 18 C 10.1875 20.101563 8.507813 21.8125 6.40625 21.8125 C 4.304688 21.8125 2.59375 20.101563 2.59375 18 C 2.59375 15.898438 4.304688 14.1875 6.40625 14.1875 Z M 6.40625 16.1875 C 5.414063 16.1875 4.59375 17.007813 4.59375 18 C 4.59375 18.992188 5.414063 19.8125 6.40625 19.8125 C 7.398438 19.8125 8.1875 18.992188 8.1875 18 C 8.1875 17.007813 7.398438 16.1875 6.40625 16.1875 Z M 20.40625 17.8125 C 21.605469 17.8125 22.59375 18.800781 22.59375 20 C 22.59375 21.199219 21.605469 22.1875 20.40625 22.1875 C 19.207031 22.1875 18.1875 21.199219 18.1875 20 C 18.1875 18.800781 19.207031 17.8125 20.40625 17.8125 Z "/>
</svg>
