<svg version="1.1" id="Layer_1" xmlns="http://www.w3.org/2000/svg" xmlns:xlink="http://www.w3.org/1999/xlink" x="0px" y="0px"
	 viewBox="0 0 64 64" style="enable-background:new 0 0 64 64;" xml:space="preserve">
<g>
	<path d="M48.2,56.5c1.6,1.3,3.1,2.2,4,3.5c0.7,1,0.5,2.5,0.7,3.8c-1.3,0-2.6,0-3.9,0c-0.3,0-0.6-0.4-0.8-0.6
		c-6.6-8.5-15.9-5.8-24.4-5.7c-1.8,0-3.7,2.5-5.5,3.9c-1.1,0.9-2.1,2.1-3.4,2.6c-1,0.4-2.3-0.1-3.5-0.2c0.2-1.2-0.1-2.6,0.6-3.5
		c1-1.4,2.6-2.3,4.2-3.7c-3.9-2.4-4.1-6-4.1-9.9c0.1-10.4,0-20.7,0-31.1c0-8.8,1.4-10.3,9.6-11.7c1.4-1.2,2.7-3.4,4.1-3.5
		c1.4,0,2.9,2,4.3,3.2c-0.2,0.3-0.4,0.6-0.6,0.9c1.7,0,3.5,0,5.2,0c-0.2-0.2-0.3-0.4-0.5-0.6c1.4-1.2,2.7-3.4,4.1-3.5
		c1.4,0,2.9,2.1,4.3,3.2c-0.2,0.3-0.4,0.6-0.5,0.8c0.8,0.1,1.5,0.1,2.3,0.2c5.1,0.3,7.7,2.8,7.8,7.9c0.1,6.4,0,12.8,0,19.2
		c0,5-0.1,9.9,0,14.9C52.4,50.4,52.3,54.1,48.2,56.5z M32,29.5c4,0,7.9,0,11.9,0c2.3,0,3.5-0.9,3.4-3.4c-0.1-2.9,0-5.7,0-8.6
		c0-2-1-3-3-3c-8,0-16.1,0-24.1,0c-1.9,0-2.8,0.9-2.9,2.8c0,2.9,0,5.7,0,8.6c-0.1,2.5,1,3.6,3.5,3.6C24.5,29.5,28.3,29.5,32,29.5z
		 M32.1,12c1.6,0,3.4,0.3,4.9-0.1c1-0.2,2.5-1.4,2.5-2.2c0.1-0.8-1.3-2.5-2.2-2.5c-3.4-0.3-6.8-0.3-10.2,0c-0.9,0.1-1.6,1.6-2.4,2.5
		c0.9,0.8,1.7,2,2.7,2.3C29,12.3,30.6,12,32.1,12z M21,44.4c-2.4,0.2-3.9,1.5-4,3.9c0,2.4,1.4,4,3.9,4c2.4,0,3.9-1.3,4-3.9
		C24.9,45.9,23.5,44.7,21,44.4z M43.8,44.4c-2.6,0.1-4.1,1.4-4.2,3.8c-0.1,2.4,1.3,4,3.8,4.1c2.4,0.1,3.9-1.2,4-3.8
		C47.5,46,46.1,44.7,43.8,44.4z"/>
</g>
</svg>
