<svg xmlns="http://www.w3.org/2000/svg" xmlns:xlink="http://www.w3.org/1999/xlink" viewBox="0 0 26 26" version="1.1">
<path d="M 10.5 0.1875 C 9.78125 0.1875 9.1875 0.78125 9.1875 1.5 C 9.1875 1.679688 9.246094 1.84375 9.3125 2 L 8 2 C 6.300781 2 5 3.300781 5 5 L 5 20 C 5 21.222656 5.675781 22.246094 6.6875 22.71875 L 4.875 24.21875 C 4.441406 24.5625 4.375 25.195313 4.71875 25.625 C 5.0625 26.058594 5.695313 26.125 6.125 25.78125 L 9.125 23.28125 C 9.226563 23.203125 9.308594 23.109375 9.375 23 L 16.625 23 C 16.691406 23.109375 16.773438 23.203125 16.875 23.28125 L 19.875 25.78125 C 20.304688 26.125 20.9375 26.058594 21.28125 25.625 C 21.625 25.195313 21.558594 24.5625 21.125 24.21875 L 19.3125 22.71875 C 20.324219 22.246094 21 21.222656 21 20 L 21 5 C 21 3.300781 19.699219 2 18 2 L 16.6875 2 C 16.753906 1.84375 16.8125 1.679688 16.8125 1.5 C 16.8125 0.78125 16.21875 0.1875 15.5 0.1875 C 14.78125 0.1875 14.1875 0.78125 14.1875 1.5 C 14.1875 1.679688 14.246094 1.84375 14.3125 2 L 11.6875 2 C 11.753906 1.84375 11.8125 1.679688 11.8125 1.5 C 11.8125 0.78125 11.21875 0.1875 10.5 0.1875 Z M 11 3 L 15 3 C 15.601563 3 16 3.398438 16 4 C 16 4.601563 15.601563 5 15 5 L 11 5 C 10.398438 5 10 4.601563 10 4 C 10 3.398438 10.398438 3 11 3 Z M 8 6 L 18 6 C 18.601563 6 19 6.398438 19 7 L 19 11 C 19 11.601563 18.601563 12 18 12 L 8 12 C 7.398438 12 7 11.601563 7 11 L 7 7 C 7 6.398438 7.398438 6 8 6 Z M 8.5 17.90625 C 9.398438 17.90625 10.09375 18.601563 10.09375 19.5 C 10.09375 20.398438 9.398438 21.09375 8.5 21.09375 C 7.601563 21.09375 6.90625 20.398438 6.90625 19.5 C 6.90625 18.601563 7.601563 17.90625 8.5 17.90625 Z M 17.5 17.90625 C 18.398438 17.90625 19.09375 18.601563 19.09375 19.5 C 19.09375 20.398438 18.398438 21.09375 17.5 21.09375 C 16.601563 21.09375 15.90625 20.398438 15.90625 19.5 C 15.90625 18.601563 16.601563 17.90625 17.5 17.90625 Z "/>
</svg>
