<svg xmlns="http://www.w3.org/2000/svg" xmlns:xlink="http://www.w3.org/1999/xlink" viewBox="0 0 26 26" version="1.1">
<path d="M 12.90625 -0.03125 C 12.863281 -0.0234375 12.820313 -0.0117188 12.78125 0 C 12.316406 0.105469 11.988281 0.523438 12 1 L 12 3.25 C 5.390625 3.675781 0.1875 8.261719 0.1875 15 C 0.1875 15 2.0625 13 4.5 13 C 6.9375 13 9 15 9 15 C 9 15 10.113281 13.546875 12 13.125 L 12 21.84375 C 12 21.875 12 21.90625 12 21.9375 L 12 22 C 12 22.03125 12 22.0625 12 22.09375 C 11.953125 23.164063 11.085938 24 10 24 C 8.882813 24 8 23.117188 8 22 C 8.007813 21.691406 7.871094 21.398438 7.632813 21.203125 C 7.398438 21.007813 7.082031 20.933594 6.78125 21 C 6.316406 21.105469 5.988281 21.523438 6 22 C 6 24.199219 7.800781 26 10 26 C 12.101563 26 13.820313 24.347656 13.96875 22.28125 C 13.992188 22.191406 14.003906 22.09375 14 22 C 14 21.96875 14 21.9375 14 21.90625 L 14 13.125 C 15.886719 13.546875 17 15 17 15 C 17 15 19.015625 13 21.5 13 C 23.984375 13 25.8125 15 25.8125 15 C 25.8125 8.261719 20.609375 3.675781 14 3.25 L 14 1 C 14.011719 0.710938 13.894531 0.433594 13.6875 0.238281 C 13.476563 0.0390625 13.191406 -0.0585938 12.90625 -0.03125 Z M 24.5 0.5 C 24.5 0.5 23 2.671875 23 3.5 C 23 4.328125 23.671875 5 24.5 5 C 25.328125 5 26 4.328125 26 3.5 C 26 2.671875 24.5 0.5 24.5 0.5 Z M 2.5 1.5 C 2.5 1.5 1 3.671875 1 4.5 C 1 5.328125 1.671875 6 2.5 6 C 3.328125 6 4 5.328125 4 4.5 C 4 3.671875 2.5 1.5 2.5 1.5 Z "/>
</svg>
