<svg xmlns="http://www.w3.org/2000/svg" xmlns:xlink="http://www.w3.org/1999/xlink" viewBox="0 0 26 26" version="1.1" width="208px" height="208px">
<g id="surface1">
<path style=" " d="M 13 0 C 11.191406 0 9.472656 0.394531 7.90625 1.0625 C 7.867188 1.078125 7.820313 1.078125 7.78125 1.09375 C 7.621094 1.128906 7.46875 1.203125 7.34375 1.3125 C 6.257813 1.839844 5.265625 2.519531 4.375 3.3125 C 4.085938 3.40625 3.859375 3.625 3.75 3.90625 C 1.433594 6.25 0 9.449219 0 13 C 0 17.296875 2.121094 21.101563 5.34375 23.46875 C 5.355469 23.476563 5.363281 23.492188 5.375 23.5 C 5.453125 23.589844 5.550781 23.664063 5.65625 23.71875 C 5.664063 23.722656 5.679688 23.714844 5.6875 23.71875 C 6.667969 24.390625 7.730469 24.925781 8.875 25.3125 C 8.886719 25.316406 8.894531 25.339844 8.90625 25.34375 C 8.925781 25.355469 8.949219 25.367188 8.96875 25.375 C 9.203125 25.574219 9.511719 25.652344 9.8125 25.59375 C 10.828125 25.855469 11.902344 26 13 26 C 19.558594 26 25 21.105469 25.875 14.78125 C 26.136719 14.460938 26.171875 14.015625 25.96875 13.65625 C 25.980469 13.433594 26 13.222656 26 13 C 26 12.046875 25.882813 11.113281 25.6875 10.21875 C 25.695313 10.035156 25.652344 9.847656 25.5625 9.6875 C 25.148438 8.109375 24.433594 6.691406 23.5 5.40625 C 23.449219 5.289063 23.375 5.183594 23.28125 5.09375 C 20.902344 2.011719 17.183594 0 13 0 Z M 13 2 C 14.933594 2 16.738281 2.503906 18.3125 3.375 C 16.871094 3.09375 15.515625 2.972656 14.28125 3 C 13.921875 3.007813 13.585938 3.039063 13.25 3.0625 C 11.914063 3.160156 10.777344 3.371094 9.90625 3.59375 C 9.613281 3.667969 9.410156 3.738281 9.1875 3.8125 C 9.117188 3.414063 9.058594 3.046875 9.03125 2.75 C 10.261719 2.273438 11.597656 2 13 2 Z M 7.125 3.6875 C 7.449219 5.984375 8.558594 9.65625 11.875 13.25 C 11.578125 14.191406 11.226563 15.039063 10.84375 15.8125 C 9.238281 14.402344 5.96875 10.816406 5.71875 4.78125 C 6.164063 4.386719 6.621094 4.007813 7.125 3.6875 Z M 14.34375 5.03125 C 16.554688 4.980469 19.21875 5.316406 21.9375 6.625 C 22.300781 7.136719 22.632813 7.679688 22.90625 8.25 C 20.382813 7.261719 18.011719 6.953125 16 6.96875 C 15.628906 6.972656 15.285156 6.976563 14.9375 7 C 12.945313 7.132813 11.472656 7.539063 10.5625 7.875 C 10.191406 7.132813 9.90625 6.441406 9.6875 5.78125 C 9.898438 5.707031 10.113281 5.605469 10.40625 5.53125 C 11.171875 5.332031 12.203125 5.152344 13.40625 5.0625 C 13.707031 5.039063 14.023438 5.039063 14.34375 5.03125 Z M 3.90625 6.84375 C 4.789063 12.753906 8.277344 16.253906 9.84375 17.5625 C 9.335938 18.335938 8.824219 18.996094 8.3125 19.5625 C 7.667969 18.980469 6.675781 17.960938 5.71875 16.5625 C 4.3125 14.503906 3.035156 11.640625 3.1875 8.0625 C 3.402344 7.636719 3.640625 7.234375 3.90625 6.84375 Z M 16.0625 8.96875 C 18.25 8.949219 20.894531 9.386719 23.75 10.84375 C 23.859375 11.394531 23.945313 11.953125 23.96875 12.53125 C 22.429688 11.925781 20.121094 11.300781 17.21875 11.375 C 16.023438 11.40625 14.722656 11.585938 13.34375 11.90625 C 12.65625 11.160156 12.113281 10.394531 11.625 9.65625 C 12.414063 9.40625 13.597656 9.101563 15.09375 9 C 15.402344 8.980469 15.734375 8.972656 16.0625 8.96875 Z M 18.5625 13.40625 C 19.425781 13.449219 20.230469 13.542969 20.9375 13.6875 C 20.851563 14.445313 20.628906 15.835938 20 17.375 C 19.105469 19.558594 17.464844 22.085938 14.375 23.90625 C 13.925781 23.960938 13.464844 24 13 24 C 12.746094 24 12.5 23.953125 12.25 23.9375 C 16.90625 20.148438 18.214844 15.355469 18.5625 13.40625 Z M 16.53125 13.4375 C 16.097656 15.535156 14.617188 20.148438 9.5625 23.4375 C 8.980469 23.246094 8.410156 23.03125 7.875 22.75 C 8.179688 22.503906 8.5 22.199219 8.84375 21.875 C 9.058594 21.78125 9.238281 21.617188 9.34375 21.40625 C 10.1875 20.542969 11.082031 19.433594 11.90625 18.0625 C 11.992188 17.960938 12.054688 17.84375 12.09375 17.71875 C 12.738281 16.597656 13.347656 15.328125 13.8125 13.84375 C 14.765625 13.625 15.671875 13.503906 16.53125 13.4375 Z M 2.03125 13.6875 C 2.570313 15.230469 3.304688 16.578125 4.0625 17.6875 C 5.09375 19.195313 6.125 20.257813 6.875 20.9375 C 6.589844 21.179688 6.324219 21.394531 6.09375 21.5625 C 3.765625 19.683594 2.226563 16.871094 2.03125 13.6875 Z M 22.90625 14.25 C 23.261719 14.378906 23.605469 14.503906 23.875 14.625 C 23.460938 17.417969 22 19.867188 19.90625 21.5625 C 20.765625 20.40625 21.394531 19.21875 21.84375 18.125 C 22.503906 16.507813 22.785156 15.183594 22.90625 14.25 Z "/>
</g>
</svg>
