<svg xmlns="http://www.w3.org/2000/svg" xmlns:xlink="http://www.w3.org/1999/xlink" viewBox="0 0 26 26" version="1.1">
<path d="M 15.5 0 C 13.210938 0 11.3125 1.292969 10.15625 3.09375 C 9.9375 3.0625 9.734375 3 9.5 3 C 6.996094 3 5 4.734375 4.34375 7.03125 C 1.945313 7.117188 0 9.082031 0 11.5 C 0 13.972656 2.027344 16 4.5 16 L 20.5 16 C 23.527344 16 26 13.527344 26 10.5 C 26 7.925781 24.179688 5.835938 21.78125 5.25 C 21.183594 2.277344 18.640625 0 15.5 0 Z M 15.5 2 C 17.871094 2 19.78125 3.808594 19.96875 6.125 L 20.0625 6.96875 L 20.875 7.03125 C 22.636719 7.21875 24 8.683594 24 10.5 C 24 12.445313 22.445313 14 20.5 14 L 4.5 14 C 3.109375 14 2 12.890625 2 11.5 C 2 10.109375 3.109375 9 4.5 9 C 4.589844 9 4.699219 9.003906 4.875 9.03125 L 5.9375 9.21875 L 6.03125 8.15625 C 6.207031 6.378906 7.675781 5 9.5 5 C 9.761719 5 10.03125 5.027344 10.3125 5.09375 L 11.09375 5.28125 L 11.4375 4.5625 C 12.160156 3.046875 13.699219 2 15.5 2 Z M 20.84375 16 C 20.753906 16.039063 20.679688 16.105469 20.625 16.1875 L 18.625 18.6875 C 18.480469 18.871094 18.480469 19.128906 18.625 19.3125 L 20.625 21.8125 C 20.71875 21.921875 20.855469 21.980469 21 21.980469 C 21.144531 21.980469 21.28125 21.921875 21.375 21.8125 L 23.375 19.3125 C 23.519531 19.128906 23.519531 18.871094 23.375 18.6875 L 21.375 16.1875 C 21.265625 16.042969 21.085938 15.972656 20.90625 16 C 20.886719 16 20.863281 16 20.84375 16 Z M 21 17.28125 L 21 20.71875 L 19.625 19 Z M 3.84375 18 C 3.753906 18.039063 3.679688 18.105469 3.625 18.1875 L 1.625 20.6875 C 1.480469 20.871094 1.480469 21.128906 1.625 21.3125 L 3.625 23.8125 C 3.71875 23.921875 3.855469 23.980469 4 23.980469 C 4.144531 23.980469 4.28125 23.921875 4.375 23.8125 L 6.375 21.3125 C 6.519531 21.128906 6.519531 20.871094 6.375 20.6875 L 4.375 18.1875 C 4.265625 18.042969 4.085938 17.972656 3.90625 18 C 3.886719 18 3.863281 18 3.84375 18 Z M 4 19.28125 L 4 22.71875 L 2.625 21 Z M 12.84375 20 C 12.753906 20.039063 12.679688 20.105469 12.625 20.1875 L 10.625 22.6875 C 10.480469 22.871094 10.480469 23.128906 10.625 23.3125 L 12.625 25.8125 C 12.71875 25.921875 12.855469 25.980469 13 25.980469 C 13.144531 25.980469 13.28125 25.921875 13.375 25.8125 L 15.375 23.3125 C 15.519531 23.128906 15.519531 22.871094 15.375 22.6875 L 13.375 20.1875 C 13.265625 20.042969 13.085938 19.972656 12.90625 20 C 12.886719 20 12.863281 20 12.84375 20 Z M 13 21.28125 L 13 24.71875 L 11.625 23 Z "/>
</svg>
