<svg xmlns="http://www.w3.org/2000/svg" xmlns:xlink="http://www.w3.org/1999/xlink" viewBox="0 0 26 26" version="1.1" width="208px" height="208px">
<g id="surface1">
<path style=" " d="M 15.5 0 C 13.210938 0 11.3125 1.292969 10.15625 3.09375 C 9.9375 3.0625 9.734375 3 9.5 3 C 6.996094 3 5 4.734375 4.34375 7.03125 C 1.945313 7.117188 0 9.082031 0 11.5 C 0 13.972656 2.027344 16 4.5 16 L 20.5 16 C 23.527344 16 26 13.527344 26 10.5 C 26 7.925781 24.179688 5.835938 21.78125 5.25 C 21.183594 2.277344 18.640625 0 15.5 0 Z M 15.5 2 C 17.871094 2 19.78125 3.808594 19.96875 6.125 L 20.0625 6.96875 L 20.875 7.03125 C 22.636719 7.21875 24 8.683594 24 10.5 C 24 12.445313 22.445313 14 20.5 14 L 4.5 14 C 3.109375 14 2 12.890625 2 11.5 C 2 10.109375 3.109375 9 4.5 9 C 4.589844 9 4.699219 9.003906 4.875 9.03125 L 5.9375 9.21875 L 6.03125 8.15625 C 6.207031 6.378906 7.675781 5 9.5 5 C 9.761719 5 10.03125 5.027344 10.3125 5.09375 L 11.09375 5.28125 L 11.4375 4.5625 C 12.160156 3.046875 13.699219 2 15.5 2 Z M 20.96875 16.84375 C 20.019531 17.335938 17.84375 18.128906 17.28125 19.03125 C 16.714844 19.933594 16.972656 21.121094 17.875 21.6875 C 18.773438 22.253906 19.894531 21.914063 20.53125 21.0625 C 21.097656 20.304688 20.96875 18.882813 20.96875 16.84375 Z M 6.96875 17.84375 C 6.019531 18.335938 3.84375 19.128906 3.28125 20.03125 C 2.714844 20.933594 2.972656 22.121094 3.875 22.6875 C 4.773438 23.253906 5.894531 22.914063 6.53125 22.0625 C 7.097656 21.304688 6.96875 19.882813 6.96875 17.84375 Z M 13.96875 20.84375 C 13.019531 21.335938 10.84375 22.128906 10.28125 23.03125 C 9.714844 23.933594 9.972656 25.121094 10.875 25.6875 C 11.773438 26.253906 12.894531 25.914063 13.53125 25.0625 C 14.097656 24.304688 13.96875 22.882813 13.96875 20.84375 Z "/>
</g>
</svg>
