<svg xmlns="http://www.w3.org/2000/svg" xmlns:xlink="http://www.w3.org/1999/xlink" viewBox="0 0 26 26" version="1.1" width="208px" height="208px">
<g id="surface1">
<path style=" " d="M 15.5 0 C 13.210938 0 11.3125 1.292969 10.15625 3.09375 C 9.9375 3.0625 9.734375 3 9.5 3 C 6.996094 3 5 4.734375 4.34375 7.03125 C 1.945313 7.117188 0 9.082031 0 11.5 C 0 13.972656 2.027344 16 4.5 16 L 7.71875 16 C 8.078125 16.003906 8.414063 15.816406 8.597656 15.503906 C 8.777344 15.191406 8.777344 14.808594 8.597656 14.496094 C 8.414063 14.183594 8.078125 13.996094 7.71875 14 L 4.5 14 C 3.109375 14 2 12.890625 2 11.5 C 2 10.109375 3.109375 9 4.5 9 C 4.589844 9 4.699219 9.003906 4.875 9.03125 C 5.144531 9.074219 5.421875 9.007813 5.640625 8.84375 C 5.859375 8.675781 6 8.429688 6.03125 8.15625 C 6.207031 6.378906 7.675781 5 9.5 5 C 9.761719 5 10.03125 5.027344 10.3125 5.09375 C 10.765625 5.199219 11.230469 4.980469 11.4375 4.5625 C 12.160156 3.046875 13.699219 2 15.5 2 C 17.871094 2 19.78125 3.808594 19.96875 6.125 C 20.011719 6.605469 20.394531 6.988281 20.875 7.03125 C 22.636719 7.21875 24 8.683594 24 10.5 C 24 12.445313 22.445313 14 20.5 14 L 16.6875 14 C 16.328125 13.996094 15.992188 14.183594 15.808594 14.496094 C 15.628906 14.808594 15.628906 15.191406 15.808594 15.503906 C 15.992188 15.816406 16.328125 16.003906 16.6875 16 L 20.5 16 C 23.527344 16 26 13.527344 26 10.5 C 26 7.925781 24.179688 5.835938 21.78125 5.25 C 21.183594 2.277344 18.640625 0 15.5 0 Z M 11.75 13 L 9.1875 20 L 11.375 20 L 10.125 25.90625 L 15 18 L 12.40625 18 L 14.90625 13 Z "/>
</g>
</svg>
