<svg xmlns="http://www.w3.org/2000/svg" xmlns:xlink="http://www.w3.org/1999/xlink" viewBox="0 0 26 26" version="1.1" width="208px" height="208px">
<g id="surface1">
<path style=" " d="M 15.5 0 C 13.210938 0 11.3125 1.292969 10.15625 3.09375 C 9.9375 3.0625 9.734375 3 9.5 3 C 6.996094 3 5 4.734375 4.34375 7.03125 C 1.945313 7.117188 0 9.082031 0 11.5 C 0 13.972656 2.027344 16 4.5 16 L 20.5 16 C 23.527344 16 26 13.527344 26 10.5 C 26 7.925781 24.179688 5.835938 21.78125 5.25 C 21.183594 2.277344 18.640625 0 15.5 0 Z M 15.5 2 C 17.871094 2 19.78125 3.808594 19.96875 6.125 L 20.0625 6.96875 L 20.875 7.03125 C 22.636719 7.21875 24 8.683594 24 10.5 C 24 12.445313 22.445313 14 20.5 14 L 4.5 14 C 3.109375 14 2 12.890625 2 11.5 C 2 10.109375 3.109375 9 4.5 9 C 4.589844 9 4.699219 9.003906 4.875 9.03125 L 5.9375 9.21875 L 6.03125 8.15625 C 6.207031 6.378906 7.675781 5 9.5 5 C 9.761719 5 10.03125 5.027344 10.3125 5.09375 L 11.09375 5.28125 L 11.4375 4.5625 C 12.160156 3.046875 13.699219 2 15.5 2 Z M 19.1875 16.84375 C 19 16.894531 18.855469 17.046875 18.8125 17.238281 C 18.773438 17.429688 18.847656 17.628906 19 17.75 L 20.21875 18.96875 L 18.5 18.96875 C 18.480469 18.96875 18.457031 18.96875 18.4375 18.96875 C 18.144531 18.984375 17.921875 19.238281 17.9375 19.53125 C 17.953125 19.824219 18.207031 20.046875 18.5 20.03125 L 20.21875 20.03125 L 19 21.25 C 18.792969 21.457031 18.792969 21.792969 19 22 C 19.207031 22.207031 19.542969 22.207031 19.75 22 L 20.96875 20.78125 L 20.96875 22.5 C 20.96875 22.792969 21.207031 23.03125 21.5 23.03125 C 21.792969 23.03125 22.03125 22.792969 22.03125 22.5 L 22.03125 20.78125 L 23.25 22 C 23.457031 22.207031 23.792969 22.207031 24 22 C 24.207031 21.792969 24.207031 21.457031 24 21.25 L 22.78125 20.03125 L 24.5 20.03125 C 24.792969 20.03125 25.03125 19.792969 25.03125 19.5 C 25.03125 19.207031 24.792969 18.96875 24.5 18.96875 L 22.78125 18.96875 L 24 17.75 C 24.167969 17.605469 24.222656 17.367188 24.136719 17.164063 C 24.054688 16.957031 23.847656 16.828125 23.625 16.84375 C 23.484375 16.84375 23.347656 16.898438 23.25 17 L 22.03125 18.21875 L 22.03125 17.5 C 22.035156 17.347656 21.972656 17.199219 21.859375 17.09375 C 21.746094 16.992188 21.589844 16.945313 21.4375 16.96875 C 21.417969 16.96875 21.394531 16.96875 21.375 16.96875 C 21.128906 17.023438 20.957031 17.246094 20.96875 17.5 L 20.96875 18.21875 L 19.75 17 C 19.636719 16.882813 19.476563 16.824219 19.3125 16.84375 C 19.292969 16.84375 19.269531 16.84375 19.25 16.84375 C 19.230469 16.84375 19.207031 16.84375 19.1875 16.84375 Z M 5.3125 16.96875 C 5.089844 17.046875 4.949219 17.265625 4.96875 17.5 L 4.96875 19.21875 L 3.75 18 C 3.636719 17.882813 3.476563 17.824219 3.3125 17.84375 C 3.292969 17.84375 3.269531 17.84375 3.25 17.84375 C 3.050781 17.875 2.886719 18.023438 2.835938 18.21875 C 2.78125 18.410156 2.84375 18.621094 3 18.75 L 4.21875 19.96875 L 2.5 19.96875 C 2.480469 19.96875 2.457031 19.96875 2.4375 19.96875 C 2.144531 19.984375 1.921875 20.238281 1.9375 20.53125 C 1.953125 20.824219 2.207031 21.046875 2.5 21.03125 L 4.21875 21.03125 L 3 22.25 C 2.792969 22.457031 2.792969 22.792969 3 23 C 3.207031 23.207031 3.542969 23.207031 3.75 23 L 4.96875 21.78125 L 4.96875 23.5 C 4.96875 23.792969 5.207031 24.03125 5.5 24.03125 C 5.792969 24.03125 6.03125 23.792969 6.03125 23.5 L 6.03125 21.78125 L 7.25 23 C 7.457031 23.207031 7.792969 23.207031 8 23 C 8.207031 22.792969 8.207031 22.457031 8 22.25 L 6.78125 21.03125 L 8.5 21.03125 C 8.792969 21.03125 9.03125 20.792969 9.03125 20.5 C 9.03125 20.207031 8.792969 19.96875 8.5 19.96875 L 6.78125 19.96875 L 8 18.75 C 8.167969 18.605469 8.222656 18.367188 8.136719 18.164063 C 8.054688 17.957031 7.847656 17.828125 7.625 17.84375 C 7.484375 17.84375 7.347656 17.898438 7.25 18 L 6.03125 19.21875 L 6.03125 17.5 C 6.035156 17.347656 5.972656 17.199219 5.859375 17.09375 C 5.746094 16.992188 5.589844 16.945313 5.4375 16.96875 C 5.417969 16.96875 5.394531 16.96875 5.375 16.96875 C 5.355469 16.96875 5.332031 16.96875 5.3125 16.96875 Z M 13.3125 18.96875 C 13.089844 19.046875 12.949219 19.265625 12.96875 19.5 L 12.96875 21.21875 L 11.75 20 C 11.636719 19.882813 11.476563 19.824219 11.3125 19.84375 C 11.101563 19.855469 10.921875 19.992188 10.851563 20.191406 C 10.78125 20.390625 10.839844 20.613281 11 20.75 L 12.21875 21.96875 L 10.5 21.96875 C 10.480469 21.96875 10.457031 21.96875 10.4375 21.96875 C 10.144531 21.984375 9.921875 22.238281 9.9375 22.53125 C 9.953125 22.824219 10.207031 23.046875 10.5 23.03125 L 12.21875 23.03125 L 11 24.25 C 10.792969 24.457031 10.792969 24.792969 11 25 C 11.207031 25.207031 11.542969 25.207031 11.75 25 L 12.96875 23.78125 L 12.96875 25.5 C 12.96875 25.792969 13.207031 26.03125 13.5 26.03125 C 13.792969 26.03125 14.03125 25.792969 14.03125 25.5 L 14.03125 23.78125 L 15.25 25 C 15.457031 25.207031 15.792969 25.207031 16 25 C 16.207031 24.792969 16.207031 24.457031 16 24.25 L 14.78125 23.03125 L 16.5 23.03125 C 16.792969 23.03125 17.03125 22.792969 17.03125 22.5 C 17.03125 22.207031 16.792969 21.96875 16.5 21.96875 L 14.78125 21.96875 L 16 20.75 C 16.167969 20.605469 16.222656 20.367188 16.136719 20.164063 C 16.054688 19.957031 15.847656 19.828125 15.625 19.84375 C 15.484375 19.84375 15.347656 19.898438 15.25 20 L 14.03125 21.21875 L 14.03125 19.5 C 14.035156 19.347656 13.972656 19.199219 13.859375 19.09375 C 13.746094 18.992188 13.589844 18.945313 13.4375 18.96875 C 13.417969 18.96875 13.394531 18.96875 13.375 18.96875 C 13.355469 18.96875 13.332031 18.96875 13.3125 18.96875 Z "/>
</g>
</svg>
