<svg xmlns="http://www.w3.org/2000/svg" xmlns:xlink="http://www.w3.org/1999/xlink" viewBox="0 0 26 26" version="1.1">
<path d="M 26 0 C 26 0 23.4375 0.00390625 22.34375 1.09375 C 20.980469 2.457031 21.5 4.0625 21.71875 4.28125 C 21.9375 4.5 23.5625 5 24.90625 3.65625 C 26 2.566406 26 0 26 0 Z M 20.96875 0.71875 C 20.0625 0.859375 18.535156 1.773438 18.25 3.09375 C 17.898438 4.722656 19.019531 5.734375 19.28125 5.8125 C 19.511719 5.882813 20.402344 5.777344 20.84375 4.5 C 20.492188 3.773438 20.648438 3.015625 21.0625 2.125 C 21.160156 1.488281 20.96875 0.71875 20.96875 0.71875 Z M 17.25 3.4375 C 16.347656 3.933594 15.601563 4.777344 15.3125 6.125 C 14.925781 7.914063 16.121094 8.789063 16.40625 8.875 C 16.691406 8.960938 17.949219 8.628906 18.34375 6.8125 C 17.4375 5.742188 17.253906 4.398438 17.25 3.4375 Z M 24.34375 4.90625 C 24.183594 4.902344 24.003906 4.910156 23.84375 4.9375 C 22.957031 5.351563 22.195313 5.476563 21.46875 5.125 C 20.1875 5.5625 20.085938 6.453125 20.15625 6.6875 C 20.234375 6.949219 21.277344 8.101563 22.90625 7.75 C 24.226563 7.464844 25.109375 5.933594 25.25 5.03125 C 25.25 5.03125 24.828125 4.917969 24.34375 4.90625 Z M 14.5 6.1875 C 13.597656 6.683594 12.855469 7.527344 12.5625 8.875 C 12.175781 10.664063 13.371094 11.535156 13.65625 11.625 C 13.941406 11.710938 15.199219 11.378906 15.59375 9.5625 C 14.6875 8.496094 14.503906 7.148438 14.5 6.1875 Z M 19.15625 7.65625 C 17.339844 8.050781 16.976563 9.308594 17.0625 9.59375 C 17.152344 9.878906 18.054688 11.074219 19.84375 10.6875 C 21.191406 10.394531 22.035156 9.65625 22.53125 8.75 C 21.570313 8.75 20.226563 8.566406 19.15625 7.65625 Z M 11.75 8.9375 C 10.847656 9.433594 10.105469 10.277344 9.8125 11.625 C 9.425781 13.414063 10.589844 14.320313 10.875 14.40625 C 11.160156 14.492188 12.449219 14.128906 12.84375 12.3125 C 11.9375 11.246094 11.753906 9.898438 11.75 8.9375 Z M 16.40625 10.40625 C 14.59375 10.800781 14.226563 12.058594 14.3125 12.34375 C 14.398438 12.628906 15.308594 13.824219 17.09375 13.4375 C 18.441406 13.148438 19.285156 12.402344 19.78125 11.5 C 18.820313 11.496094 17.476563 11.3125 16.40625 10.40625 Z M 9 11.6875 C 8.097656 12.183594 7.355469 13.027344 7.0625 14.375 C 6.675781 16.164063 7.839844 17.070313 8.125 17.15625 C 8.410156 17.242188 9.699219 16.878906 10.09375 15.0625 C 9.1875 13.992188 9.003906 12.648438 9 11.6875 Z M 13.65625 13.15625 C 11.84375 13.550781 11.476563 14.808594 11.5625 15.09375 C 11.648438 15.378906 12.554688 16.574219 14.34375 16.1875 C 15.691406 15.894531 16.535156 15.152344 17.03125 14.25 C 16.070313 14.246094 14.726563 14.066406 13.65625 13.15625 Z M 10.90625 15.90625 C 9.089844 16.300781 8.726563 17.558594 8.8125 17.84375 C 8.898438 18.128906 9.804688 19.324219 11.59375 18.9375 C 12.941406 18.644531 13.785156 17.902344 14.28125 17 C 13.320313 16.996094 11.976563 16.8125 10.90625 15.90625 Z M 8.21875 17.71875 C 7.75 17.953125 7.03125 18.15625 7.03125 18.15625 L 0.15625 25.0625 L 0.96875 25.84375 L 7.84375 18.96875 C 7.84375 18.96875 7.953125 18.234375 8.21875 17.71875 Z "/>
</svg>
