<svg xmlns="http://www.w3.org/2000/svg" xmlns:xlink="http://www.w3.org/1999/xlink" viewBox="0 0 26 26" version="1.1">
<path d="M 12.90625 -0.03125 C 12.863281 -0.0234375 12.820313 -0.0117188 12.78125 0 C 12.316406 0.105469 11.988281 0.523438 12 1 L 12 3.5625 L 10.71875 2.28125 C 10.476563 2.03125 10.121094 1.925781 9.78125 2 C 9.40625 2.066406 9.105469 2.339844 9 2.703125 C 8.894531 3.070313 9.003906 3.460938 9.28125 3.71875 L 12 6.4375 L 12 11.25 L 7.78125 8.84375 L 6.8125 5.15625 C 6.714844 4.714844 6.328125 4.390625 5.875 4.375 C 5.8125 4.367188 5.75 4.367188 5.6875 4.375 C 5.398438 4.417969 5.144531 4.582031 4.988281 4.828125 C 4.832031 5.074219 4.789063 5.378906 4.875 5.65625 L 5.34375 7.4375 L 3.09375 6.125 C 2.894531 6.007813 2.664063 5.964844 2.4375 6 C 2.003906 6.054688 1.660156 6.382813 1.578125 6.8125 C 1.5 7.242188 1.710938 7.671875 2.09375 7.875 L 4.3125 9.15625 L 2.59375 9.625 C 2.058594 9.761719 1.738281 10.308594 1.875 10.84375 C 2.011719 11.378906 2.558594 11.699219 3.09375 11.5625 L 6.78125 10.5625 L 10.96875 13 L 6.78125 15.4375 L 3.09375 14.4375 C 2.960938 14.398438 2.824219 14.390625 2.6875 14.40625 C 2.203125 14.464844 1.835938 14.863281 1.8125 15.351563 C 1.789063 15.835938 2.117188 16.269531 2.59375 16.375 L 4.3125 16.84375 L 2.09375 18.125 C 1.609375 18.402344 1.441406 19.015625 1.71875 19.5 C 1.996094 19.984375 2.609375 20.152344 3.09375 19.875 L 5.34375 18.5625 L 4.875 20.34375 C 4.738281 20.878906 5.058594 21.425781 5.59375 21.5625 C 6.128906 21.699219 6.675781 21.378906 6.8125 20.84375 L 7.78125 17.15625 L 12 14.75 L 12 19.5625 L 9.28125 22.28125 C 8.882813 22.679688 8.882813 23.320313 9.28125 23.71875 C 9.679688 24.117188 10.320313 24.117188 10.71875 23.71875 L 12 22.4375 L 12 25 C 11.996094 25.359375 12.183594 25.695313 12.496094 25.878906 C 12.808594 26.058594 13.191406 26.058594 13.503906 25.878906 C 13.816406 25.695313 14.003906 25.359375 14 25 L 14 22.4375 L 15.28125 23.71875 C 15.679688 24.117188 16.320313 24.117188 16.71875 23.71875 C 17.117188 23.320313 17.117188 22.679688 16.71875 22.28125 L 14 19.5625 L 14 14.75 L 18.21875 17.15625 L 19.1875 20.84375 C 19.324219 21.378906 19.871094 21.699219 20.40625 21.5625 C 20.941406 21.425781 21.261719 20.878906 21.125 20.34375 L 20.65625 18.5625 L 22.90625 19.875 C 23.390625 20.152344 24.003906 19.984375 24.28125 19.5 C 24.558594 19.015625 24.390625 18.402344 23.90625 18.125 L 21.6875 16.84375 L 23.40625 16.375 C 23.957031 16.296875 24.34375 15.785156 24.265625 15.234375 C 24.1875 14.683594 23.675781 14.296875 23.125 14.375 C 23.070313 14.382813 23.019531 14.390625 22.96875 14.40625 C 22.949219 14.414063 22.925781 14.425781 22.90625 14.4375 L 19.21875 15.4375 L 15.03125 13 L 19.21875 10.5625 L 22.90625 11.5625 C 23.441406 11.699219 23.988281 11.378906 24.125 10.84375 C 24.261719 10.308594 23.941406 9.761719 23.40625 9.625 L 21.6875 9.15625 L 23.90625 7.875 C 24.375 7.675781 24.621094 7.160156 24.476563 6.671875 C 24.332031 6.183594 23.84375 5.878906 23.34375 5.96875 C 23.3125 5.976563 23.28125 5.988281 23.25 6 C 23.128906 6.019531 23.011719 6.0625 22.90625 6.125 L 20.65625 7.4375 L 21.125 5.65625 C 21.214844 5.347656 21.152344 5.011719 20.953125 4.757813 C 20.753906 4.503906 20.445313 4.363281 20.125 4.375 C 20.09375 4.375 20.0625 4.375 20.03125 4.375 C 19.613281 4.429688 19.277344 4.742188 19.1875 5.15625 L 18.21875 8.84375 L 14 11.25 L 14 6.4375 L 16.71875 3.71875 C 17.117188 3.320313 17.117188 2.679688 16.71875 2.28125 C 16.320313 1.882813 15.679688 1.882813 15.28125 2.28125 L 14 3.5625 L 14 1 C 14.011719 0.710938 13.894531 0.433594 13.6875 0.238281 C 13.476563 0.0390625 13.191406 -0.0585938 12.90625 -0.03125 Z "/>
</svg>
