<svg xmlns="http://www.w3.org/2000/svg" width="32" height="32" viewBox="0 0 32 32">
  <g fill="#fff" fill-rule="evenodd">
    <path d="M16.000032 21.3818214c-2.9722797 0-5.3818534-2.4095738-5.3818534-5.3818534 0-2.9722798 2.4095737-5.3817894 5.3818534-5.3817894 2.9722798 0 5.3818534 2.4095096 5.3818534 5.3817894 0 2.9722796-2.4095736 5.3818534-5.3818534 5.3818534m0-13.67273021c-4.5789399 0-8.29094081 3.71193681-8.29094081 8.29087681 0 4.579004 3.71200091 8.2909408 8.29094081 8.2909408 4.57894 0 8.2908768-3.7119368 8.2908768-8.2909408 0-4.57894-3.7119368-8.29087681-8.2908768-8.29087681M25.5999995 7.1272727c0 .88367848-.7163097 1.60000003-1.5999736 1.60000003-.8836638 0-1.6000265-.71632155-1.6000265-1.60000003 0-.88367849.7163627-1.60000004 1.6000265-1.60000004.8836639 0 1.5999736.71632155 1.5999736 1.60000004"/>
    <path d="m15.9999683 0c-4.3453074 0-4.8902412.01841851-6.59674785.09628434-1.70307697.07767529-2.86611054.34817333-3.88389193.74372669-1.05207795.40882738-1.94442295.95592062-2.83390991 1.84540758-.88955047.88955047-1.43658019 1.78183197-1.84547109 2.83390992-.39555335 1.01778139-.66598788 2.18081497-.74372668 3.88389194-.07786585 1.70657013-.09622084 2.25137693-.09622084 6.59674783s.01835499 4.8902411.09622084 6.5968112c.0777388 1.7030135.34817333 2.8661106.74372668 3.8838285.4088909 1.052078.95592062 1.944423 1.84547109 2.8339099.88948696.8895505 1.78183196 1.4365802 2.83390991 1.8455346 1.01778139.3954898 2.18081496.6659879 3.88389193.7437267 1.70650665.0778024 2.25144045.0962208 6.59674785.0962208 4.3453708 0 4.8901776-.0184184 6.5967477-.0962208 1.7030769-.0777388 2.8661105-.3482369 3.883892-.7437267 1.0521414-.4089544 1.9444229-.9559841 2.8339099-1.8455346.8895505-.8894869 1.4365801-1.7817685 1.845471-2.8339099.3955534-1.0177179.6660514-2.180815.7437267-3.8838285.0778658-1.7065701.0962844-2.2514403.0962844-6.5968112 0-4.3453074-.0184186-4.8901777-.0962844-6.59674783-.0776753-1.70307697-.3481733-2.86611055-.7437267-3.88389194-.4088909-1.05207795-.9559205-1.94435945-1.845471-2.83390992-.889487-.88948696-1.7817685-1.4365802-2.8339099-1.84540758-1.0177815-.39555336-2.1808151-.6660514-3.883892-.74372669-1.7065701-.07786583-2.2513769-.09628434-6.5967477-.09628434m0 2.88287774c4.2722048 0 4.7782058.01625909 6.4653412.09323575 1.5599841.07119707 2.4071721.33185072 2.970969.55096747.7468388.2902503 1.2798958.63696285 1.8397549 1.19682203.5598592.55992266.9065718 1.09291621 1.1968856 1.83975499.2190533.56379692.4797068 1.41098482.550904 2.97096902.0769132 1.6871354.0932358 2.1931998.0932358 6.4653413 0 4.2722049-.0163226 4.7782693-.0932358 6.4653412-.0711972 1.5600478-.3318507 2.4072357-.550904 2.9710326-.2903138.7467752-.6370264 1.2798323-1.1968856 1.8396915-.5598591.5599226-1.0929161.9066352-1.8397549 1.1968854-.5637969.2190533-1.4109849.4797705-2.970969.550904-1.6868814.0769767-2.1928188.0932993-6.4653412.0932993-4.2725226 0-4.7784599-.0163226-6.46534131-.0932993-1.5599842-.0711335-2.40723562-.3318507-2.97103253-.550904-.74677527-.2902502-1.27983233-.6369628-1.83969149-1.1968854-.55985916-.5598592-.90663522-1.0929163-1.19688552-1.8396915-.21905323-.5637969-.4797069-1.4109848-.55090396-2.9709691-.07697666-1.6871354-.09323576-2.1931998-.09323576-6.4654047 0-4.2721415.0162591-4.7782059.09323576-6.4653413.07119706-1.5599842.33185073-2.4071721.55090396-2.97096902.2902503-.74683878.63702636-1.27983233 1.19688552-1.83969149.55985916-.55992268 1.09291622-.90663523 1.83969149-1.19688553.56379691-.21911675 1.41104833-.4797704 2.97096902-.55096747 1.68719892-.07697666 2.19319982-.09323575 6.46540482-.09323575"/>
  </g>
</svg>
