<svg height="27" viewBox="0 0 32 27" width="32" xmlns="http://www.w3.org/2000/svg"><path d="m32 3.0929368s-1.2490706 2.02230484-3.2713755 3.39033458c.4163569 9.27881042-6.3643122 19.56877322-18.6765799 19.56877322-6.12639404 0-10.0520446-2.9739777-10.0520446-2.9739777s4.81784387 1.0111524 9.69516729-2.6765799c-4.93680298-.2973978-6.12639406-4.5799257-6.12639406-4.5799257s1.36802974.3568774 2.9739777-.1189591c-5.53159851-1.3680297-5.2936803-6.5427509-5.2936803-6.5427509s1.36802974.83271376 2.9739777.83271376c-4.99628253-3.86617101-2.02230484-8.80297398-2.02230484-8.80297398s4.5204461 6.36431227 13.56133831 6.89962825c-1.3085502-7.19702602 6.9591078-10.52788104 11.1821561-6.00743494 2.2007435-.35687733 4.2230483-1.60594796 4.2230483-1.60594796s-.7137546 2.43866171-2.9144981 3.62825279c1.7843866-.11895911 3.7472119-1.01115242 3.7472119-1.01115242z" fill="#fff"/></svg>