<svg xmlns="http://www.w3.org/2000/svg" width="216" height="84" viewBox="0 0 216 84">
  <g fill="#FFF" fill-rule="evenodd">
    <path d="M89.6 15.4c.9.3 1.8.8 2.7 1.4.7.5 1.3.7 1.7.7.3 0 .5-.2.7-.5.2-.4.3-.9.4-1.7h1.2c-.2 2-.3 5.4-.3 10.4h-1.2c-.2-2.7-1-5.1-2.4-6.9-1.4-1.9-3.4-2.8-6-2.8-1.8 0-3.3.6-4.5 1.7-1.2 1.1-1.7 2.5-1.7 4.2 0 1.3.3 2.4.9 3.4.6.9 1.3 1.8 2.3 2.4.9.7 2.2 1.5 3.9 2.6l1.5.9c2.1 1.3 3.8 2.5 5.1 3.5 1.2 1 2.2 2.1 3 3.4.7 1.3 1.1 2.8 1.1 4.5 0 3.1-1 5.5-3 7.1-2 1.7-4.6 2.5-7.7 2.5-1.6 0-3-.2-4-.5s-2-.8-3-1.4c-.7-.5-1.3-.7-1.7-.7-.3 0-.5.2-.7.5-.2.4-.3.9-.4 1.7h-1.2c.1-1.9.2-5.9.2-12.2h1.2c.2 3.4 1.1 6.2 2.5 8.3 1.5 2.1 3.7 3.2 6.7 3.2 1.8 0 3.4-.6 4.7-1.7 1.3-1.1 1.9-2.8 1.9-5.1 0-1.9-.6-3.5-1.9-4.8-1.3-1.3-3.3-2.8-6-4.5-2-1.2-3.6-2.3-4.9-3.3-1.2-.9-2.2-2.1-3-3.4-.8-1.3-1.2-2.9-1.2-4.7 0-2.8.9-5 2.7-6.5 1.8-1.5 4.1-2.3 6.8-2.3 1.5.1 2.7.2 3.6.6z"/>
    <path fill-rule="nonzero" d="M103.4 50.2c-1-1.1-1.6-2.5-1.6-4.4 0-1.5.4-2.8 1.2-3.8.8-1 1.8-1.8 2.9-2.3 1.1-.6 2.6-1.2 4.5-1.8 1.9-.6 3.3-1.2 4.2-1.8.9-.5 1.4-1.3 1.4-2.2v-3.2c0-2-.4-3.3-1.2-4-.8-.7-2-1.1-3.5-1.1-2.4 0-4 .6-5 1.8.7.2 1.2.5 1.7 1.1.5.5.7 1.2.7 2s-.3 1.5-.8 2-1.2.7-2.1.7c-.9 0-1.7-.3-2.1-.9-.5-.6-.7-1.3-.7-2.2 0-.8.2-1.5.6-2 .4-.5 1-1.1 1.8-1.6.8-.6 1.8-1 3.1-1.4 1.3-.4 2.6-.6 4.1-.6 2.6 0 4.6.6 6 1.9.8.8 1.4 1.7 1.7 2.8.3 1.1.4 2.6.4 4.3v14.1c0 .8.1 1.5.4 1.8.2.4.6.6 1.2.6.4 0 .8-.1 1.1-.3.4-.2.7-.4 1.1-.8l.6.9c-.9.7-1.6 1.2-2.3 1.4-.6.3-1.4.4-2.4.4-1.6 0-2.8-.4-3.4-1.2-.6-.8-1-1.9-1-3.3-1 1.7-2.2 2.9-3.5 3.5-1.3.7-2.8 1-4.5 1-2 .2-3.6-.4-4.6-1.4zm12.7-4.3v-10c-.3.5-.7.9-1.3 1.2-.5.3-1.4.7-2.5 1.2-1.3.5-2.3 1.1-3.1 1.6-.8.5-1.5 1.2-2.1 2-.6.8-.9 1.9-.9 3.3 0 1.5.4 2.7 1.1 3.5.7.8 1.7 1.2 2.9 1.2 2.4-.2 4.3-1.4 5.9-4z"/>
    <path d="M145.2 25.7c.9.8 1.3 1.7 1.3 2.8 0 .9-.3 1.6-.8 2.3-.5.6-1.2.9-2.1.9-.7 0-1.4-.2-1.9-.7-.5-.5-.8-1.1-.8-1.9 0-1.1.6-2 1.7-2.7-.2-.3-.6-.5-1.1-.5-1.3 0-2.5.5-3.6 1.6-1.1 1-1.9 2.3-2.5 3.8-.6 1.5-.9 2.9-.9 4.2v10.8c0 1.6.4 2.6 1.3 3.3.9.6 2.2.9 4 .9v1.1l-1.2-.1c-3.5-.1-5.7-.2-6.6-.2-.9 0-2.9.1-6 .2v-1.1c1.4 0 2.4-.3 3-.8.6-.5.9-1.5.9-2.9V30.8c0-1.6-.3-2.7-.9-3.4-.6-.7-1.6-1.1-3-1.1v-1.1c1.1.1 2.1.2 3.2.2 2.1 0 3.9-.2 5.3-.7V31c.6-1.7 1.6-3.2 2.9-4.5 1.3-1.3 2.8-2 4.4-2 1.4 0 2.5.4 3.4 1.2zm25.3.8c.6.7 1.1 1.5 1.4 2.5.3 1 .4 2.4.4 4.1v13.6c0 1.4.3 2.3.9 2.9.6.5 1.6.8 3 .8v1.1c-3.1-.1-5.2-.2-6.1-.2-.9 0-2.8.1-5.7.2v-1.1c1.3 0 2.1-.3 2.6-.8s.7-1.5.7-2.9V32c0-1.9-.3-3.3-.8-4.3s-1.6-1.5-3.3-1.5c-1.4 0-2.6.4-3.7 1.2-1.1.8-1.9 1.9-2.5 3.3-.6 1.4-.9 3-.9 4.7v11.3c0 1.4.2 2.3.7 2.9.5.5 1.4.8 2.6.8v1.1c-2.8-.1-4.7-.2-5.7-.2-.9 0-3 .1-6.1.2v-1.1c1.4 0 2.4-.3 3-.8.6-.5.9-1.5.9-2.9V30.8c0-1.6-.3-2.7-.9-3.4-.6-.7-1.6-1.1-3-1.1v-1.1c1.1.1 2.1.2 3.2.2 2.1 0 3.9-.2 5.3-.7v6c.8-2.2 2-3.7 3.5-4.7s3.2-1.4 5.1-1.4c2.4-.1 4.2.6 5.4 1.9z"/>
    <path fill-rule="nonzero" d="M186.2 46.7c0 1.4.3 2.3.9 2.9.6.5 1.6.8 3 .8v1.1c-3.1-.1-5.2-.2-6.2-.2s-3 .1-6.2.2v-1.1c1.4 0 2.4-.3 3-.8.6-.5.9-1.5.9-2.9V30.8c0-1.6-.3-2.7-.9-3.4-.6-.7-1.6-1.1-3-1.1v-1.1c1.1.1 2.1.2 3.2.2 2.1 0 3.9-.2 5.3-.7v22zm-.3-33.2c.6.6 1 1.4 1 2.3 0 .9-.3 1.6-1 2.3-.6.6-1.4 1-2.3 1-.9 0-1.6-.3-2.3-1-.6-.6-1-1.4-1-2.3 0-.9.3-1.6 1-2.3.6-.6 1.4-1 2.3-1 .9 0 1.6.4 2.3 1zm8.2 36.7c-1-1.1-1.6-2.5-1.6-4.4 0-1.5.4-2.8 1.2-3.8.8-1 1.8-1.8 2.9-2.3 1.1-.6 2.6-1.2 4.5-1.8 1.9-.6 3.3-1.2 4.2-1.8.9-.5 1.4-1.3 1.4-2.2v-3.2c0-2-.4-3.3-1.2-4-.8-.7-2-1.1-3.5-1.1-2.4 0-4 .6-5 1.8.7.2 1.2.5 1.7 1.1.5.5.7 1.2.7 2s-.3 1.5-.8 2-1.2.7-2.1.7c-.9 0-1.7-.3-2.1-.9-.5-.6-.7-1.3-.7-2.2 0-.8.2-1.5.6-2 .4-.5 1-1.1 1.8-1.6.8-.6 1.8-1 3.1-1.4 1.3-.4 2.6-.6 4.1-.6 2.6 0 4.6.6 6 1.9.8.8 1.4 1.7 1.7 2.8.3 1.1.4 2.6.4 4.3v14.1c0 .8.1 1.5.4 1.8.2.4.6.6 1.2.6.4 0 .8-.1 1.1-.3.4-.2.7-.4 1.1-.8l.6.9c-.9.7-1.6 1.2-2.3 1.4-.6.3-1.4.4-2.4.4-1.6 0-2.8-.4-3.4-1.2-.6-.8-1-1.9-1-3.3-1 1.7-2.2 2.9-3.5 3.5-1.3.7-2.8 1-4.5 1-1.9.2-3.5-.4-4.6-1.4zm12.8-4.3v-10c-.3.5-.7.9-1.3 1.2-.5.3-1.4.7-2.5 1.2-1.3.5-2.3 1.1-3.1 1.6-.8.5-1.5 1.2-2.1 2-.6.8-.9 1.9-.9 3.3 0 1.5.4 2.7 1.1 3.5.7.8 1.7 1.2 2.9 1.2 2.4-.2 4.3-1.4 5.9-4z"/>
    <g transform="translate(76 59)">
      <path fill-rule="nonzero" d="M13.1 7.9c0 2.3-.6 4.2-1.7 5.5-1.2 1.4-2.8 2-4.8 2s-3.6-.7-4.8-2C.6 12 .1 10.2.1 7.9s.6-4.2 1.8-5.5c1.2-1.3 2.8-2 4.8-2s3.6.7 4.8 2c1 1.4 1.6 3.2 1.6 5.5zm-12 0c0 2.1.5 3.7 1.4 4.9.9 1.1 2.3 1.7 4 1.7 1.8 0 3.1-.6 4-1.7.9-1.1 1.5-2.8 1.5-4.9 0-2.1-.5-3.7-1.4-4.9-.9-1.2-2.3-1.7-4-1.7-1.7 0-3.1.6-4 1.7-1 1.2-1.5 2.8-1.5 4.9z"/>
      <path d="M36.4 15.3h-1l-8.7-13h-.1c.1 1.5.1 2.7.1 3.5v9.5h-1V.6h1l8.7 13h.1c-.1-1.2-.1-2.3-.1-3.4V.6h1v14.7z"/>
      <polygon points="53.7 15.3 52.7 15.3 52.7 1.6 47.9 1.6 47.9 .6 58.4 .6 58.4 1.6 53.6 1.6 53.6 15.3"/>
      <path fill-rule="nonzero" d="M77 10.1h-6l-2 5.2h-1.1L73.8.6h.7l5.8 14.7H79l-2-5.2zm-5.6-.9h5.2l-2-5.3c-.2-.4-.4-1-.6-1.7-.2.6-.4 1.2-.6 1.7l-2 5.3zm21.2-.3v6.4h-1V.6h3.5c1.8 0 3.2.3 4 1 .9.7 1.3 1.7 1.3 3 0 1-.3 1.8-.8 2.5s-1.3 1.2-2.4 1.5l4 6.7H100l-3.8-6.4h-3.6zm0-.9h2.8c1.2 0 2.2-.3 2.9-.8.7-.6 1-1.4 1-2.4 0-1.1-.3-1.9-1-2.4s-1.8-.8-3.3-.8h-2.4V8z"/>
      <polygon points="113.1 15.3 113.1 .6 114.1 .6 114.1 15.2 113.1 15.2"/>
      <path fill-rule="nonzero" d="M139.9 7.9c0 2.3-.6 4.2-1.7 5.5-1.2 1.4-2.8 2-4.8 2s-3.6-.7-4.8-2c-1.2-1.4-1.7-3.2-1.7-5.5s.6-4.2 1.8-5.5c1.2-1.3 2.8-2 4.8-2s3.6.7 4.8 2c1 1.4 1.6 3.2 1.6 5.5zm-12 0c0 2.1.5 3.7 1.4 4.9.9 1.1 2.3 1.7 4 1.7 1.8 0 3.1-.6 4-1.7.9-1.1 1.4-2.8 1.4-4.9 0-2.1-.5-3.7-1.4-4.9-.9-1.2-2.3-1.7-4-1.7-1.7 0-3.1.6-4 1.7-.9 1.2-1.4 2.8-1.4 4.9z"/>
    </g>
    <path fill-rule="nonzero" d="M51.9 5.6c-.2.6-.5 1.2-.7 1.9-.2.4-.3.9-.5 1.3 0 .1-.1.2-.2.2-.6.4-1.3.7-1.9 1.1-.1 0-.1.1-.1.2-.9 3-1.9 5.9-2.8 8.9v.5c.1.4.1.9.2 1.3v.3c-.5 1.3-1 2.5-1.5 3.8 0 0 0 .1-.1.1h.7c.2 0 .2 0 .2.2V48c0 .5-.2.9-.3 1.3-.7 2.2-1.7 4.2-2.8 6.2-2 3.4-4.3 6.5-6.9 9.4-1.1 1.3-2.3 2.5-3.6 3.7-1.7 1.7-3.5 3.3-5.4 4.8l-.1.1c-.2-.2-.4-.4-.7-.6-1.6-1.4-3.2-2.9-4.8-4.4-2.5-2.5-4.9-5.1-7.1-7.8-1.8-2.2-3.4-4.5-4.7-7-.8-1.7-1.5-3.2-1.9-4.9-.1-.4-.1-.8-.1-1.2V25.1h.9c-.1-.3-.2-.5-.3-.8-.4-1.1-.8-2.2-1.1-3.4 0-.1-.1-.2-.1-.3v-1.7c-.9-2.6-1.7-5.2-2.6-7.7 0-.1-.1-.1-.2-.2-.6-.4-1.3-.8-1.9-1.2-.1 0-.1-.1-.2-.2L.1 6.9c0-.1-.1-.1-.1-.2v-.1c.5-.4 1-.7 1.5-1.1.3.5.6.9.9 1.3l.1.1c.2-.1.5-.2.8-.3-.2-.6-.4-1.1-.6-1.6.6-.2 1.2-.4 1.8-.7.2.6.5 1.1.7 1.7.4-.2.7-.3 1-.5l.1-.1c-.1-.2-.2-.5-.3-.8 0-.2-.1-.5-.2-.8.6-.2 1.2-.4 1.9-.6.1.5.3.9.4 1.4l.9-.3c-.2-.5-.3-1-.5-1.5.6-.2 1.2-.3 1.7-.5v.1c.4 1.1.7 2.2 1.1 3.2v.2c-.1.6-.3 1.2-.4 1.8v.2c.2-.1.4-.1.6-.1h.1c.3.1.5.1.8.2.1 0 .2.1.2.2.1.4.2.9.3 1.3.1-.2.4-.3.6-.4-.2-.7-.3-1.5-.5-2.2.7-.1 1.4-.3 2.1-.4h.1c.2.1.4.3.6.3.3.1.4.3.4.5 0 .3.1.6.1.8.4 0 .8-.1 1.2-.2l.1-.1c0-.3 0-.6-.1-.9 0-.3 0-.7-.1-1h.1c.6 0 1.3-.1 1.9-.1.2 0 .3 0 .4.1.2.2.5.3.7.5 0 0 .1.1.1.2v1.3h.6V5.7c.2 0 .4 0 .7.1 0-.1-.1-.1-.1-.2-.3-.5-.7-1.1-1-1.6 0-.1-.1-.1-.1-.2 0-.7-.1-1.5-.1-2.2V.5c.6-.1 1.2-.2 1.7-.3l.3 1.5.1.1c.3 0 .5.1.8.1 0-.6 0-1.2.1-1.8h1.9V2c.4 0 .8 0 1.2-.1.1-.6.1-1.2.2-1.8.7.1 1.3.1 2 .2 0 .5-.1 1-.1 1.5.3 0 .5-.1.8-.1l.1-.1c.1-.5.1-.9.2-1.4.6.1 1.2.1 1.8.2v.1c-.1 1.1-.1 2.2-.2 3.4 0 .1 0 .1-.1.2-.4.4-.7.9-1.1 1.3-.1.1-.1.2-.2.2.4.2.7.4 1.1.6.1.1.1.1.1.2-.1.5-.1.9-.2 1.4.2 0 .5 0 .7.1.1-.7.2-1.5.4-2.2h1.9c.2 0 .4 0 .6.1.2.2.5.3.8.5-.2.6-.4 1.1-.6 1.7.4 0 .8.1 1.2.1l.6-2.1c.9.3 1.8.5 2.6.7v.2c0 .2 0 .4.1.6.1.4.1.7-.1 1-.1.1-.1.3-.2.4.1.1.2.1.3.2.3-.5.5-1 .8-1.4.2.1.4.1.6.2v-.3c-.1-.6-.3-1.2-.5-1.9v-.3c.2-1 .5-1.9.7-2.9 0-.1.1-.3.1-.4.6.1 1.2.3 1.8.4-.1.5-.2 1.1-.2 1.6.3.1.6.3.9.4.2-.6.4-1.1.6-1.7l1.8.6-.6 1.8 1.2.3c.4-.5.6-1 .8-1.6.6.3 1.2.5 1.8.7-.2.5-.3.9-.5 1.4.3.1.6.2.9.4.2-.5.4-1.1.7-1.6.5.3 1.1.5 1.6.8zM7.1 41.1c.6 0 1.2.2 1.8.4 1.7.7 3.2 1.7 4.7 2.9.2.2.5.4.8.6.5.3 1 .4 1.5.5 1 .1 1.9-.1 2.7-.5.7-.4 1.4-.8 1.9-1.4.3-.3.6-.6.9-.8 1.2-.9 2.5-1.4 3.9-1.6.6-.1 1.3 0 1.9.1 1 .2 2 .6 2.8 1.1.5.3 1 .6 1.4 1 .7.7 1.5 1.3 2.4 1.8.8.4 1.7.5 2.6.4.8-.1 1.6-.4 2.2-.9.5-.3.9-.7 1.4-1.1.9-.7 1.9-1.3 3-1.7.5-.2 1.1-.2 1.6-.4V25.4H6.9c.2 5.2.2 10.4.2 15.7zm37.7 3.2c-.4.1-.8.1-1.1.2-1.4.3-2.5 1-3.5 2.1-.2.2-.4.4-.7.6-1.4 1-3 1.4-4.7 1-1.3-.3-2.3-1-3.3-1.9-.4-.4-.8-.9-1.3-1.2-1.1-.9-2.4-1.3-3.9-1.3-1.1 0-2.1.3-3 .7-.7.3-1.3.7-1.8 1.2-.8.7-1.6 1.4-2.6 1.8-.8.4-1.7.8-2.7.7-.6 0-1.2-.2-1.7-.6-1.3-1-2.7-2-4.1-2.8-.8-.5-1.6-.9-2.4-1.2-.3-.1-.5-.1-.8-.2V48c0 .4 0 .4.4.4h.1c.7.1 1.4.3 2 .6 1.4.7 2.7 1.6 3.9 2.6.3.2.5.5.9.6 1 .4 2 .4 3.1.1 1.2-.4 2.2-1.1 3.1-2 .6-.7 1.3-1.3 2.2-1.7 1.5-.8 3.1-1.1 4.8-.6 1.3.4 2.5 1.1 3.5 2.1.5.5.9 1 1.5 1.3 1 .7 2.2 1.2 3.5 1.1 1.2-.1 2.2-.6 3.2-1.3.5-.4.9-.8 1.5-1.1 1.2-.8 2.5-1.5 4-1.5 0 0 .1 0 .1-.1.1-.3.2-.6.2-.8v-2.6c-.4-.1-.4-.4-.4-.8zm-8 18c2.5-3.1 4.7-6.3 6.4-9.9-.1-.1-.2-.1-.3-.1-.4-.2-.9-.1-1.3.1-.7.3-1.2.8-1.7 1.3-.2.2-.5.5-.8.7-1 .7-2.1 1.1-3.4 1.1-.9 0-1.7-.2-2.6-.6-1.1-.5-2-1.2-2.8-2.1-1-1.1-2.2-1.7-3.7-1.8-.9-.1-1.7 0-2.6.3-1.2.4-2.3 1-3.3 1.8-1 .9-2.1 1.5-3.3 2-.9.4-1.9.7-3 .5-.4-.1-.7-.2-1-.4-.8-.7-1.6-1.4-2.4-2-.7-.6-1.5-1.1-2.4-1.4-.2-.1-.4-.1-.7-.2 1.7 3.9 4.2 7.2 6.9 10.5 0-.1.1-.1.1-.2 1-1.9 2.2-3.6 3.8-5.1 1.7-1.5 3.5-2.6 5.8-2.9.7-.1 1.3-.2 2 0 1.5.3 2.9 1 4.2 1.8 2.2 1.4 3.9 3.4 5.2 5.6.5.2.7.6.9 1zm7.3-37.2L44 25c-.7-.3-1.5-.6-2.2-.9-2.8-1-5.5-2.1-8.4-2.7-1-.2-2-.5-3-.7-.8-.1-1.6-.2-2.4-.2h-2.9c-1.3.1-2.5.1-3.7.3-.8.1-1.5.2-2.3.3-.6.1-1.3.2-1.9.3-.6.1-1.2.3-1.8.5-2.5.8-4.9 1.9-7.3 3 0 0-.1 0-.1.1 11.9.1 24 .1 36.1.1zM24.8 54c-.9.1-1.7.4-2.4.7-.1 0-.1.1-.1.2v14.4c0 .1 0 .2.1.2.8.7 1.5 1.4 2.3 2.1.1 0 .1.1.2.1-.1-5.8-.1-11.7-.1-17.7zm16.7-35.2s-.1.1 0 0c-.2.3-.3.6-.4.8 0 .2-.1.4-.1.5v1.3c0 .3-.1.6-.3.9-.2.3-.4.3-.6.1-.2-.2-.3-.2-.6-.2-.2 0-.3-.1-.3-.3 0-.2 0-.3.1-.5.2-.5.5-1 .9-1.4.4-.4.5-.9.6-1.4-.2 0-.4.1-.5.1-.8.4-1.7.9-2.5 1.4-.1 0-.1.1-.2 0-.8-.2-.9-.9-.5-1.5.2.1.5.2.7.2h.3c.6-.2 1.1-.4 1.6-.6.4-.1.8-.3 1.2-.4 0-.1-.1-.2-.2-.3-1.1-.4-2.1-.8-3.2-1.2h-.2c-.3.2-.5.4-.8.6-.1 0-.1.1-.1.2-.3.6-.6 1.3-.9 1.9 0 0-.1.1 0 .1.1.2 0 .4-.2.6-.2.2-.2.3-.3.5-.1.3-.3.6-.4 1 3.2 1 6.3 2 9.3 3.3l1.5-3.6v-.1c-.1-.4-.1-.9-.2-1.3 0-.1-.1-.2-.2-.2-1-.4-2-.9-3-1.3 0 0-.1 0-.1.1.4.8.9 1.5 1.3 2.3.2.3.4.5.8.7.4.1.4.2.2.6 0 0 0 .1-.1.1-.2.2-.4.4-.7.4-.3 0-.5-.1-.6-.4-.3-.8-.6-1.6-.9-2.5-.2-.2-.3-.3-.4-.5zM27.2 72l2.1-1.8c.1-.1.1-.2.1-.3V55.3c0-.1 0-.2-.1-.2-.4-.2-.9-.4-1.3-.6-.3-.1-.5-.2-.8-.3V72zm-16-53.5l.3.9c0 .1.1.2.2.3l.6.6c.2.3.5.6.6 1 .1.4-.1.6-.4.6-.2 0-.4.1-.5.2-.1.2-.3.2-.5 0-.1-.1-.2-.3-.2-.4-.2-.5-.2-1-.2-1.6 0-.2 0-.4-.1-.6-.1-.2-.2-.5-.3-.7-.1.2-.2.4-.3.5-.3.8-.6 1.7-1 2.5 0 .1-.1.1-.1.2-.3 0-.5.1-.7.1-.4 0-.7-.4-.7-.9.2-.1.5-.2.7-.3.1 0 .1-.1.2-.1.4-.8.9-1.5 1.3-2.3v-.1c-1.2.5-2.3 1.1-3.4 1.7l-.1.1c0 .3 0 .5.1.8.3 1 .7 2 1 3 .1.2.2.5.3.7 2.9-1.3 5.8-2.6 8.9-3.5l-.6-1.5-.1-.1c-.3-.1-.4-.3-.4-.6 0-.1 0-.1.1-.2h.1c-.2-.4-.3-.8-.5-1.2-.2-.5-.2-.5-.7-.8h-.2c-.7.2-1.4.4-2.2.6-.3.1-.7.2-1 .4h.1c.9.3 1.7.5 2.6.8h.2c.3-.1.5-.2.8-.3.1.2.2.5.2.7 0 .4-.3.6-.6.7-.1.1-.2.1-.3 0-.8-.4-1.6-.8-2.4-1.1-.4 0-.6 0-.8-.1zm14.4-2.8c-.2.1-.4.2-.5.3-.6.7-1.3 1.3-1.9 2-.1.1-.1.1-.3.1-.8 0-1-.7-.9-1.2h.8c.1 0 .2 0 .2-.1.4-.3.8-.7 1.3-1 .3-.2.5-.4.8-.6H25c-.9.1-1.8.1-2.8.2-.3 0-.4.1-.6.4-.2.2-.3.5-.3.8 0 1.1-.1 2.1-.2 3.2v.9c3-.3 5.9-.4 8.9-.1v-1.8c-.1-.2-.1-.5 0-.7v-1.5c0-.3 0-.5-.3-.7l-.3-.3-.1-.1c-1-.1-1.9-.2-2.9-.3h-.2v.1c.7.5 1.3 1.1 2 1.6 0 0 .1.1.2.1h.7c.1 0 .1 0 .2.1.2.5-.2 1.1-.7 1.1-.2 0-.3 0-.5-.2-.6-.6-1.2-1.3-1.8-1.9-.1-.1-.3-.2-.5-.3h-.1V17c.1.4.3.7.4 1.1.1.3.2.6.1 1-.1.3-.3.4-.6.3-.2-.1-.4-.1-.6 0-.1.1-.2.1-.3 0-.1-.1-.1-.2-.1-.3v-.6c.1-.5.3-1 .5-1.5v-.2c.5-.4.5-.8.5-1.1zM30 5.9v4.2c.3 0 .6-.1.8-.1.7.1 1.5.1 2.2.3 1.8.3 3.5.8 5.2 1.4l.9.3c.5-1.3 1-2.5 1.6-3.8-.1 0-.1 0-.2-.1s-.2-.1-.3.1c-.1.1-.1.3-.2.4-.2.3-.3.6-.5.9-.6-.2-1.1-.4-1.7-.6.3-.7.6-1.3.9-2-.7-.2-1.3-.4-2-.6-.2.7-.4 1.3-.6 2-.8-.1-1.6-.2-2.4-.2L34 6h-1.7c-.1.8-.2 1.5-.4 2.2-.7-.1-1.3-.1-2-.2 0-.6.1-1.2.1-1.8.2-.2.2-.3 0-.3zm-17.5 6c.8-.4 1.6-.6 2.5-.7 1-.2 2.1-.4 3.1-.6 1-.1 1.9-.2 2.9-.3.3 0 .5-.1.8-.1V6.4c0-.3 0-.3-.3-.3h-.1v2h-1.9c0-.7 0-1.3-.1-2-.6 0-1.1.1-1.7.1 0 .7.1 1.4.1 2.1-.9.1-1.7.2-2.6.3-.1-.6-.2-1.2-.4-1.8-.5.1-1 .2-1.6.3v.2c.1.6.3 1.2.4 1.9 0 .1 0 .1-.1.2l-1.8.6c-.2-.6-.4-1.3-.7-1.9.2-.1.1-.1 0 0 .5 1.2 1 2.5 1.5 3.8zM5 6.5c-.2-.6-.5-1.2-.7-1.7-.4.1-.8.2-1.2.4.2.6.4 1.2.7 1.8-.6.3-1.2.5-1.7.8-.3-.6-.5-1.2-.7-1.7-.4.2-.7.4-1 .7.4.9.8 1.8 1.2 2.6 3-1.6 6.1-3.1 9.5-3.9l-.3-.9c-.2-.6-.4-1.3-.7-1.9l-.1-.1c-.3.1-.6.2-1 .3.3.6.5 1.1.8 1.7-.6.2-1.2.5-1.8.7-.1-.6-.3-1.1-.5-1.6-.4.1-.9.2-1.3.4.2.6.3 1.1.5 1.7-.6.2-1.1.4-1.7.7zm23.5-6c-.5 0-.9-.1-1.3-.1v.1c0 .5-.1 1-.1 1.4 0 .1 0 .2-.2.2-.4 0-.8 0-1.3.1h-.4V.3h-1.3c0 .6-.1 1.3-.1 1.9-.6 0-1.2.1-1.9.1V.4c-.4.1-.8.1-1.1.2 0 1 .1 1.9.1 2.9 3.4-.3 6.8-.5 10.2 0 .1-1 .1-2 .2-3-.4 0-.7-.1-1.1-.1 0 .6.1 1.2.1 1.8h-1.9c.1-.5.1-1.1.1-1.7zm13 2c0 .1-.1.1 0 0-.2 1-.5 1.9-.7 2.8 0 .1 0 .1.1.1 1 .2 1.9.5 2.9.7 1.8.6 3.5 1.1 5.2 1.9.5.2.9.4 1.4.6.1-.3.3-.7.4-1 .2-.6.4-1.2.6-1.7v-.2c-.3-.2-.6-.3-.9-.4-.1.6-.3 1.2-.4 1.8l-1.8-.6c.2-.5.4-1.1.6-1.6-.4-.2-.8-.3-1.2-.5 0 .1-.1.2-.1.2-.3.4-.5.8-.6 1.2 0 .1-.1.1-.2.1-.2-.1-.4-.1-.6-.2-.3-.1-.7-.2-1.1-.3l.6-1.8c-.4-.1-.8-.3-1.2-.4-.2.6-.4 1.2-.7 1.8-.6-.2-1.2-.3-1.8-.5l.6-1.8c-.4 0-.8-.1-1.1-.2zm-9.6 65.2c0-.1.1-.1 0 0 .8-.7 1.4-1.5 2.1-2.2 0 0 .1-.1.1-.2v-6.4c0-.1 0-.1-.1-.2-.6-.7-1.3-1.4-2.1-2 0 0-.1 0-.1-.1 0 3.7.1 7.4.1 11.1zM19.8 56.3c0 .1 0 .1 0 0-.7.6-1.4 1.2-1.9 1.8 0 0-.1.1-.1.2v6.6c0 .1 0 .2.1.2.5.5 1 1.1 1.6 1.6l.2.2c.1-3.4.1-7 .1-10.6zM31 3.9c-3.3-.5-6.7-.3-10 0 .4.6.7 1.1 1 1.6l.1.1c1.3 0 2.6-.1 3.9-.1h3.4c.2 0 .4-.1.5-.2.2-.3.5-.6.7-.9.2-.2.3-.3.4-.5zm9.8 1.8c0 .1 0 .1 0 0 .1.6.3 1.1.4 1.6 0 .1.1.2.2.2 2.3.8 4.5 1.5 6.8 2.3h.2c.3-.1.6-.3.9-.5.3-.2.6-.4 1-.5-1.2-.7-7-2.6-9.5-3.1zM1.9 9.6c.6.4 1.2.7 1.7 1h.2c.4-.2.7-.4 1.1-.5 1.8-.8 3.6-1.6 5.4-2.3.2-.1.3-.2.3-.3.1-.5.3-1 .5-1.6-3.3.8-6.2 2.2-9.2 3.7zm21.9-3.8c0 .4 0 .7-.1 1.1 0 .1 0 .2.1.2.2.2.4.4.6.5 0 0 .1.1.2.1h2.9c.1 0 .1 0 .2-.1.2-.1.3-.3.5-.5l.1-.1c0-.4 0-.8-.1-1.3-1.5.1-3 .1-4.4.1zM5.3 10.2c.1.4.2.7.4 1l.1.1c.3.1.6.2.8.4.1.1.1.1.2 0 .7-.3 1.3-.5 2-.8.3-.1.5-.2.5-.5.1-.2.2-.4.2-.6 0-.2-.1-.4-.2-.6-.1-.2-.1-.4-.2-.6-1.3.5-2.6 1-3.8 1.6zm25.3 8.7v1.3l.1.1c1.2.3 2.3.6 3.5.8h.1c.2-.4.4-.8.5-1.2-.2 0-.3-.1-.3-.3-.3-.5-.6-1.1-.9-1.6l-.3-.3c-.1.2-.1.3-.1.5 0 .1-.1.2-.1.4s.1.4.1.6c0 .3 0 .6-.1.9-.1.2-.3.3-.5.1-.1-.1-.3-.1-.4-.1-.1 0-.2 0-.2-.1v-.3c.1-.5.4-.8.7-1.2.2-.3.2-.6.2-.9-.1 0-.3.1-.4.2-.5.3-1 .6-1.5 1-.1.1-.2.1-.4.1zm-12.5-1.2c-.1.1-.2.2-.3.2-.4.5-.8 1-1.2 1.6v.2c.2.4.4.8.5 1.2 0 .1.1.1.2.1.8-.1 1.6-.2 2.3-.3.4-.1.9-.1 1.3-.2 0-.4.1-.9.1-1.3-.1 0-.1.1-.2.1-.2.1-.3.1-.5-.1-.4-.4-.9-.8-1.4-1.2-.1-.1-.2-.1-.3-.2v.4c0 .2.1.4.2.6.1.2.2.5.3.7.1.2.1.4.1.5 0 .2-.2.3-.4.2-.2-.1-.3 0-.5 0-.1.1-.3 0-.3-.1s-.1-.3-.1-.4c.1-.4.2-.7.2-1.1v-.4c.1-.1.1-.2 0-.5zm28.5-8c-1.3-.4-2.6-.9-3.9-1.3-.2.4-.3.8-.4 1.1v.2c.1.2.2.3.3.5 0 .1.1.2.2.2.8.3 1.6.6 2.5.8h.2l.6-.3.1-.1c.1-.4.2-.7.4-1.1zm-13.3 5c-1.1-.2-2.2-.5-3.4-.5v.7l.1.1.6.6c.1.1.1.1.1.2 0 .6 0 1.3-.1 1.9v.1c.1 0 .3.1.4 0 .4-.1.8-.3 1.1-.5.3-.1.5-.2.8-.4-.1-.2-.2-.3-.2-.4-.1-.2-.2-.3-.3-.5-.1-.2-.3-.3-.5-.5-.1-.1-.3-.1-.4 0-.2.1-.3.1-.5.2-.1 0-.1 0-.2-.1-.3-.3-.1-.8.3-1 .4-.1.7.1.9.3.4.4.7.9.9 1.3 0 .1.1.1.1.2.1-.3.2-.5.1-.8.1-.1 0-.4.2-.9 0 .1 0 .1 0 0zm-15.3 2c0-.3 0-.6-.2-.8-.2-.3-.4-.6-.3-.9v-.1c-1 .2-2.9.6-3.3.9 0 .1.1.2.1.4 0 .1.1.2.3.3l.6.3c.1 0 .2.1.2.2.2.6.5 1.1.7 1.7.1.2.2.2.3.1.5-.5 1-.9 1.4-1.4l.1-.1c-.2-.2-.5-.4-.7-.6-.2-.2-.5-.4-.8-.4-.1 0-.2 0-.3.1-.1.1-.3.2-.4.3-.1 0-.2.1-.2 0-.4-.2-.4-.7-.1-1 .2-.1.4-.2.6-.2.5.1.8.3 1.2.6.3.2.6.4.8.6zm26.3-.7c.2-.6.4-1.2.7-1.9-1.4-.5-2.7-.9-4.1-1.4l-.6 1.8c.2.1.4.1.7.2.2.1.4.1.7.2.1-.3.2-.7.4-1 .1-.3.4-.4.6-.2.1.3.3.3.6.3.2 0 .4.2.3.5 0 .1 0 .1-.1.2l-.3.9c.4.1.7.2 1.1.4zm-33.6-2.8c-1.3.5-2.6 1-3.8 1.5l.9 1.8c.4-.2.7-.3 1.1-.5 0-.1-.1-.2-.1-.3-.1-.3-.2-.5-.3-.8-.2-.4 0-.6.4-.6.2 0 .4 0 .5-.2 0-.1.1-.1.1-.1.2-.1.4 0 .5.2.2.4.3.8.5 1.2.3-.1.7-.3 1.1-.4l-.9-1.8zm17.4-2.6h-4c-.1 0-.1 0-.1.1v1.9c.4 0 .7 0 1.1-.1 0-.1-.1-.2-.1-.2v-1.1c0-.2.2-.4.4-.4.1 0 .2 0 .3.1.1.1.2.1.4 0 .1-.1.2-.1.3-.1.2 0 .4.1.4.4v1.2c.5 0 .9 0 1.4.1-.1-.6-.1-1.3-.1-1.9zm5.4 1.4c.8.2 1.7.4 2.5.6.1-.2.2-.5.5-.6.2-.1.3-.2.3-.4v-.1l-3.6-.9c-.1.2-.1.3-.2.4 0 .1 0 .1.1.2.2.2.4.5.4.8zm-12.4 6.4V16s0 .1-.1.1c-.1.2-.2.2-.4.1-.1 0-.2-.1-.3-.2-.2-.2-.4-.1-.6 0-.5.3-.8.7-1.1 1.1l1.8 1.2h.1c.2.1.4.1.6.1zm16.5-2.8c.5-1.1.9-2.2 1.4-3.3-.7-.2-1.3-.4-1.9-.6-.1.3-.1.3.1.5.3.2.5.6.4 1-.1.4-.2.7-.3 1.1l-.3 1.2c.3 0 .4 0 .6.1zm-18.1-4.9c-1.3.2-2.5.4-3.8.6 0 .4 0 .4.3.5.2.1.4.2.5.5 0 .1.1.1.2.1.3-.1.6-.1.9-.2.5-.1.9-.1 1.4-.2.1-.5.1-.6.3-.8.3-.2.3-.3.2-.5zm-13 8.9c1.1-.6 2.2-1.1 3.4-1.7-.2-.1-.4-.2-.7-.3-.4-.2-.9-.3-1.4-.3-.2 0-.3.1-.4.3-.1.2-.3.4-.4.6-.1.1-.2.1-.4 0-.1-.1-.2-.2-.4-.3.3.7.4 1.2.3 1.7zm27.1-2.4c.4.6.8 1.1 1.2 1.7.1.1.2.2.4.2.3-.7.6-1.3.9-2-.1 0-.2-.1-.3-.1l-.3-.3c-.1-.2-.2-.2-.4-.2-.5.1-1 .4-1.5.7zm-11.8-6.7c-.7.1-1.3.1-1.9.2v.3h.2c.3.1.6.3.7.7.1.4.1.8.2 1.1.1.4.1.8.2 1.2h.4c.1 0 .2 0 .2-.2v-3.3zm-3.3 6.1c.3-.3.6-.7 1-1 .2-.2.5-.4.8-.5.3-.1.8.1.8.4v.3c.2-.2.3-.5.4-.6.3-.3.2-.6.2-1-1 .1-2 .2-3 .4v.1c.1.4 0 .8-.2 1.1-.1.3 0 .6 0 .8zM15 13h-.2c-.5.2-1 .3-1.4.5-.1.1-.2.1-.1.3.1.2.2.5.3.7.1.3.3.7.4 1 .4-.1.8-.3 1.2-.4.1 0 .1-.1.1-.2-.1-.4-.1-.8-.2-1.3 0-.2-.1-.4-.1-.6zm11.5 1.7c1 .1 2.1.2 3.1.2v-1.1c-.3 0-.5-.1-.8-.4-.2-.2-.4-.2-.6-.1-.1 0-.2.1-.3.1-.5.4-1 .9-1.4 1.3zm-4.3-.8v1c1.1-.1 2.1-.1 3.2-.2-.4-.4-.8-.7-1.2-1-.2-.2-.5-.2-.7-.3-.1-.1-.2 0-.3.1-.2.1-.4.3-.6.4h-.4zM46 16.7c.2-.7.4-1.3.6-2-.5-.2-.9-.3-1.4-.5l-.3.9-.3.9c.5.3.9.5 1.4.7zm-13.2-6.2c-.6-.2-2.1-.4-2.8-.1v1.2c.6 0 1.2.1 1.8.1.1-.3.3-.6.6-.7.3 0 .4-.2.4-.5 0 .1 0 .1 0 0zm-5.5-.3V8h-1.4v2.2h1.4zm-16.2 7.3c1-.3 2-.6 3-1-.1-.3-.3-.6-.4-1-.1.2-.3.2-.4.2-.2 0-.4-.1-.6-.1-.2-.1-.4 0-.5.1-.1.1-.2.1-.2.2-.5.5-.7 1-.9 1.6zM30 11.9v2c.4 0 .8.1 1.2.1.2-.7.4-1.3.6-2-.7 0-1.2-.1-1.8-.1zm-14.6-.6c-.9.2-1.9.4-2.8.8.2.4.3.8.5 1.1.6-.3 1.2-.5 1.8-.6l.1-.1c0-.3.1-.6.3-.8.1-.1.2-.2.1-.4zm-10.1 4c.2.7.5 1.4.7 2.1.2-.2.4-.5.6-.6.2-.1.5-.2.8-.2-.3-.6-.6-1.1-.8-1.7-.4.1-.8.2-1.3.4zm37.8-2.2c.2-.7.4-1.4.7-2.1-.4-.1-.8-.3-1.2-.4l-.6 2.1c.3.2.7.3 1.1.4zm-19.4-2.6h-1.5v2c.5-.4 1-.2 1.5 0v-2zm18.7 7.3c1 .4 1.9.9 2.9 1.3.1-.4.2-.7.3-1.1-.1.1-.1.1-.2.1-.2.2-.3.2-.5-.1-.1-.2-.2-.3-.3-.5-.1-.2-.3-.3-.5-.3-.6 0-1.1.3-1.7.6zM40 14.5c.2-.7.4-1.3.7-1.9-.4-.1-.8-.3-1.2-.4-.3.6-.5 1.2-.8 1.9.4.2.9.1 1.3.4zm-28.1.3c.4-.4.8-.6 1.3-.5-.3-.6-.5-1.2-.8-1.8-.5.2-.9.3-1.4.5l.9 1.8zm24.6 1.9c.3-.3.7-.5 1-.8-1-.3-2-.6-3-.8 0 .2-.1.3-.1.5-.1.1-.2.3-.3.4 0 0-.1 0-.1.1-.2.2-.2.4-.3.7h.1c.1 0 .1-.1.2-.1.5-.3 1-.6 1.6-.7.4-.2.9.1.9.7zm-12-6.5h1.1V8h-1.1c-.1 0-.1.1-.1.2v1.2c.1.3.1.5.1.8zM9.4 8.5c.1.5.3.9.4 1.3l.1.1.6.3s.1.1.1 0c.2-.1.4-.1.7-.2-.3-.7-.5-1.3-.8-1.9-.3.1-.7.2-1.1.4zm-1.3 3c.3.7.5 1.3.8 2 .4-.1.7-.3 1-.4-.3-.7-.5-1.3-.8-2-.3.2-.6.3-1 .4zm29.7 4.6c1 .4 2 .7 3 1.1-.2-.4-.4-.7-.6-1.1-.1-.2-.3-.3-.4-.4-.1-.1-.2-.1-.4 0s-.5.1-.8.2c-.2 0-.3-.1-.3-.2 0-.2-.1-.3-.1-.5-.1.2-.3.5-.4.9zM8.6 13.7c-.3-.7-.5-1.3-.8-2-.4.1-.7.3-1 .4.3.7.6 1.3.8 2 .3-.2.7-.3 1-.4zm38.9-1.6c.2-.6.4-1.3.6-1.9-.4-.2-.7-.3-1.1-.4-.1 0-.1 0-.2.1-.1.3-.3.7-.4 1v.2l.3.6.1.1c.3.1.5.2.7.3zm-3.4-.9c-.2.7-.4 1.4-.7 2.1.3.1.7.2 1 .3.2-.7.5-1.4.7-2.1-.3-.1-.7-.2-1-.3zm-1.7-3c-.4-.1-.8-.2-1.2-.4-.2.6-.5 1.2-.7 1.8.2.1.4.1.6.2h.2c.2-.1.4-.2.7-.3l.1-.1c0-.4.2-.8.3-1.2zm-24.3 6.2c-.1-.7-.2-1.3-.3-2-.3.1-.7.1-1 .2-.1 0-.1.1-.1.2.1.3.1.5.2.8.1.3.1.7.2 1.1.1-.1.3-.1.4-.2.1-.2.2-.2.5-.2l.1.1zm15.3-2.1c-.1.7-.3 1.4-.4 2 .1 0 .2 0 .2.1.1 0 .2 0 .2-.1.1-.1.2-.1.3-.1.1 0 .2.1.3.2.1-.6.3-1.2.4-1.9-.3 0-.6-.1-1-.2zm-28.9.4c.1-.1.3-.1.4-.2.1 0 .2-.1.2-.3 0-.1 0-.2.1-.3.2-.3.2-.7 0-1-.1-.1-.2-.3-.2-.6-.3.1-.5.3-.8.4-.4.2-.4.2-.2.6.1.4.3.9.5 1.4zm25.1-6.9h-1.2c0 .5 0 .9.1 1.3 0 0 0 .1.1.1l.4.4.1.1h.5V5.8zm-6.1 0c-.4 0-.9 0-1.3.1v1.8h.4c.2 0 .3 0 .4-.2.1-.1.1-.2.2-.3.1-.1.2-.2.2-.4s0-.6.1-1zm11.8 9.1c.2-.7.4-1.3.5-2-.4-.1-.7-.2-1.1-.3-.1.6-.3 1.2-.4 1.8.2 0 .2.2.3.3.3.1.5.1.7.2zm-17.2-2.5c.1.6.2 1.2.3 1.9.2 0 .3.1.5.1.2-.1.3-.1.5-.1-.1-.7-.2-1.3-.2-2-.4 0-.7 0-1.1.1zm10.4-1.8v1.8c.4-.1.8-.1 1.1.1v-1.9h-1.1zm-16.2 1.6c-.3-.7-.5-1.3-.8-2-.2.1-.4.2-.7.2.3.7.6 1.3.8 2 .2 0 .5-.1.7-.2zm34.5 2.2c.2-.7.4-1.3.6-2v-.1c-.2-.1-.4-.2-.6-.2l-.6 2.1c.1.1.3.1.6.2zm-6.5-4.5c-.3.7-.6 1.3-.8 2 .2.1.5.2.7.2.2-.7.5-1.4.7-2.1-.2 0-.4 0-.6-.1zM5.9 14.7c-.3-.7-.5-1.3-.8-2-.1.1-.3.1-.4.2-.1 0-.2.1-.1.2.2.5.4 1.1.6 1.6 0 .1 0 .1.1.2.2 0 .4-.1.6-.2zM42 17.4c.8-.5 1.5-.8 2.4-1-.4-.2-.8-.3-1.2-.5H43l-.3.3c-.4.3-.6.7-.7 1.2zm-1.6-2.5c-.1 0-.1 0 0 0 .5.7.8 1.4 1 2.3.1-.2.2-.4.2-.6 0-.1.1-.2.1-.2 0-.3-.1-.6-.1-1 0 0 0-.1-.1-.1-.4-.1-.8-.3-1.1-.4zM22.2 8.1v2.1h.5V8.1h-.5zm6.9 0v2.2h.5V8.2c-.2-.1-.3-.1-.5-.1zM8.2 16.7c.6.3 1.2.5 1.9.8 0-.1-.1-.2-.1-.2-.1-.2-.1-.3-.2-.5s-.3-.3-.5-.5h-.1c-.4.1-.7.2-1 .4zm2.4.5c.3-.6.5-1.2.8-1.8-.3.1-.6.2-1 .4 0 0 0 .1-.1.1 0 .4 0 .9.3 1.3zm13.6-4.4l1.4 1.4v-.8c-.1-.2-.2-.4-.3-.5l-.1-.1h-1zm2 1.4c.5-.4.9-.9 1.4-1.4h-1s-.1 0-.1.1c-.3.4-.4.8-.3 1.3zM34.5 6c-.1.6-.1 1.2-.2 1.8.1-.1.2-.1.3-.1.2-.5.4-.9.5-1.4-.3-.1-.4-.2-.6-.3zm-3.7 1.7c.1-.4.1-.8.2-1.2v-.1c-.1-.1-.2-.2-.4-.2 0 .5-.1 1-.1 1.6.1-.1.2-.1.3-.1zm7.9 1.1c.2-.5.5-.9.3-1.4-.2.4-.4.9-.6 1.3.1 0 .2.1.3.1zM2.1 7.1c0 .1.1.2.1.3.2-.1.3-.2.5-.2-.1 0-.3.1-.4.1-.1-.1-.1-.2-.2-.2zM30 1.8c-.2 0-.3.1-.5.1h.5v-.1z"/>
    <path fill-rule="nonzero" d="M22.9 83.2c-.3-.1-.7-.1-1-.2-.7-.2-1.5-.4-2.1-.9-1.1-.8-1.4-2-.9-3.3v-.1c-2.5-1-4.9-2.3-7-3.9-2.2-1.6-4.1-3.4-5.9-5.5-.2.5-.4 1.1-.2 1.6.1.3.3.5.6.6h.2c.1 0 .2-.1.2-.2 1.9 1.8 3.7 3.7 5.6 5.6-.4 0-.7.1-1.1.1-1.6.1-3.1-.1-4.6-.6-1.4-.5-2.6-1.2-3.6-2.4-.6-.7-1-1.6-1.1-2.5-.2-1.5.1-2.9.7-4.3.3-.6.7-1.2 1-1.8 0-.1.1-.2.1-.3-.2-1.1-.2-2.2-.1-3.3.1-1.4.5-2.8 1.3-4 .5-.8 1.2-1.3 2.1-1.4.3 0 .6-.1.9 0 .3 0 .5.2.7.3.6.4.9 1 1.1 1.7.2.8.2 1.6.2 2.4 0 .8-.2 1.6-.3 2.4 0 .1 0 .2.1.3 1.1 1.3 2.3 2.5 3.5 3.6 2.7 2.3 5.6 4.2 8.8 5.8l1.8.9c.1 0 .1.1.2.2.2.7.2 1.5.2 2.3 0 .1 0 .1.1.2.9.3 1.9.5 2.9.3.3 0 .7-.2 1-.3.2 0 .2-.1.2-.3 0-.7.1-1.4.2-2.1 0-.1.1-.2.2-.3 3.6-1.7 7-3.8 10-6.3 1.5-1.3 3-2.7 4.2-4.2-.1-.3 0-.3-.1-.5-.3-1.2-.5-2.4-.4-3.6 0-.6.1-1.2.5-1.8.3-.5.7-.8 1.2-1 .4-.2.7-.1 1.1-.1.5.1.9.3 1.3.6.6.4 1 1.1 1.3 1.7.6 1.3.9 2.7.9 4.2 0 .8 0 1.6-.2 2.4 0 .1 0 .1.1.2.7 1 1.2 2.2 1.4 3.4.3 1.3.3 2.5-.1 3.8-.2.8-.5 1.5-1 2.2-.7.8-1.6 1.4-2.6 1.8-1 .4-2.1.6-3.2.6-1 .1-2 .1-2.9-.1h-.2l.1-.1 5.3-5.3c.1-.1.2-.1.3-.1h.1c.3.1.3.1.5-.2.2-.4.3-.7.2-1.1 0-.4-.1-.7-.1-1.1v-.1c-3.5 4.3-7.8 7.4-12.9 9.5.1.3.1.6.1.9.1 1.2-.4 2.2-1.3 2.9-.5.4-1.1.6-1.7.8h-7.9zM7.1 56.7l-.9.3c-.6.4-1.1 1-1.4 1.6-1 2.2-1.2 4.5-.7 6.8.1.3.1.6.3.8 1.7 2.8 3.9 5.2 6.4 7.2 3.4 2.7 7.1 4.6 11.2 5.8.1 0 .2 0 .4-.1.6-.4.9-1 1.1-1.7.3-1.2.3-2.4 0-3.6 0-.1-.1-.1-.1-.1-2.4-1.2-4.8-2.5-7-4.1-2.4-1.7-4.6-3.5-6.5-5.7-.2-.2-.4-.4-.6-.7-.5-.6-.9-1.3-1.4-1.9-.5-.7-1-1.3-1.2-2.2-.3-.9-.2-1.8.4-2.6v.2zm36.1 6.7c-.1.1-.1.1-.1.2-.9 1.1-1.9 2.1-3 3.1-2 1.8-4.2 3.4-6.6 4.8-1.5.9-3 1.7-4.5 2.5-.1 0-.1.1-.1.2-.2 1.1-.3 2.2 0 3.3.2.8.5 1.5 1.2 2 .1.1.2.1.4.1 2-.6 3.8-1.3 5.6-2.3 3.1-1.6 5.9-3.6 8.4-6.1 1.4-1.5 2.6-3 3.7-4.8 0-.1.1-.2.1-.3.3-1.1.4-2.3.3-3.5-.1-1.3-.4-2.6-1-3.9-.3-.7-.8-1.3-1.5-1.7-.2-.1-.5-.2-.7-.3v.1c0 .1.1.1.1.2.4.6.5 1.2.5 1.9-.1.8-.4 1.5-.8 2.1l-.9 1.2c-.2.3-.4.7-.6 1-.1.1-.2.3-.3.4-.2-.1-.2-.1-.2-.2zM24.1 76.6c0 .1-.1.1 0 0v.1c-.1.6-.2 1.2-.5 1.7-.3.6-.7 1.1-1.3 1.4-.4.2-.7.4-1 .7-.3.3-.3.6 0 .9.5.5 1.1.7 1.8.7h7.1c.2-.2.5-.3.7-.5.4-.3.4-.8.1-1.2-.2-.3-.5-.5-.8-.7-.6-.3-1-.8-1.3-1.5-.3-.5-.4-1.1-.4-1.7-1.6.8-3 .5-4.4.1zm24.1-9.9c0 .1-.1.1-.1.1-.4.6-.9 1.2-1.3 1.9v.2c.1.5.2 1.1.2 1.7 0 .6-.2 1.1-.7 1.5l-.1.1c0 .4.1.7.6.7.5-.1 1-.3 1.4-.6.7-.6 1-1.4 1-2.2 0-1.4-.4-2.4-1-3.4zm-44 0s0 .1 0 0c-.1.2-.1.2-.2.3-.4.7-.7 1.5-.7 2.3 0 1 .4 1.8 1 2.5.6.6 1.3.5 1.9-.1 0 0-.1 0-.1-.1-.4-.3-.7-.6-.7-1.1 0-.5.1-1 .3-1.4.1-.2.1-.2 0-.4l-.9-1.2c-.2-.2-.4-.5-.6-.8zM9.3 63c0-.1 0-.1 0 0 .3-1.4.5-2.7.3-4-.1-.5-.2-1-.5-1.5-.2-.3-.4-.5-.7-.6 0 .1 0 .1.1.1.5.6.6 1.3.5 2.1-.1.7-.4 1.2-.8 1.8-.1.1-.1.2 0 .2l.6.9c0 .3.2.6.5 1zm35.2-2c-.2-.5-.5-.9-.7-1.4-.4-.9-.4-1.8.3-2.7v-.1c-.4.2-.7.5-.9.9-.2.5-.3.9-.3 1.4 0 .8 0 1.6.2 2.3l.3 1.2c.3-.4.7-1 1.1-1.6zM15.4 27.2c0-.1 0-.2-.1-.3-.1-.3-.1-.6.1-.8.3-.4.8-.3 1 .1.1.2.1.5 0 .7 0 .1-.1.2-.1.2v1.1c.2 0 .4-.1.6-.1 0 .2 0 .3-.1.5.2.1.4.1.6.2.6.1 1.2.3 1.8.4h.4c-.1.3-.2.6-.2 1-.1.3-.1.7-.2 1 .2-.1.5-.3.8-.4.2-.1.4-.1.7-.1 0-.1-.1-.1-.1-.2-.1-.2-.1-.4 0-.6.1-.2.2-.2.4-.2.4 0 .6.5.3.8-.1.1-.1.2-.1.4V32c.4-.1.8-.2 1.1-.3 0 .6 0 1.1-.1 1.7 0 .6 0 1.1.1 1.7.2-.2.3 0 .5.1.2.2.5.4.8.6-.2.2-.5.3-.7.5-.1.1-.2.1-.1.3v.1c-.1.2 0 .3.2.4.1 0 .2.1.2.3v.5c0 .1 0 .1-.1.2-.2 0-.3.1-.5.2-.1 0-.2.1-.2.2-.1.3-.1.3-.5.3h-.1v.4c.2 0 .3.1.5.1-.1.4-.2.7-.3 1.1-.1.3-.2.6-.3 1 0 .1 0 .1-.1.2-.7.3-1.4.6-2.2.9.2-.6.4-1.1.6-1.7h-.1s0 .1-.1.1c-.5 1.2-1.5 1.8-2.7 2-.8.1-1.6.1-2.4-.1-.9-.2-1.6-.8-2.2-1.4-.6-.6-1-1.3-1.4-2-.3-.4-.6-.9-1.1-1-.4-.2-.6-.5-.9-.8 0-.1.1-.1.1-.2.1-.2.3-.3.5-.4.2 0 .3-.1.4-.3l.1-.1h-.5c-.3 0-.3 0-.3-.3 0-.6 0-1.3.1-1.9.1-.4.2-.7.6-.8.3-.1.6-.2.8-.3l.1-.1v-1c-.2 0-.3 0-.4.1 0 0-.1 0-.1.1-.1.3-.4.4-.7.4-.3 0-.6 0-.9.1-.2 0-.4.1-.6.2h-.1c-.1-.2 0-.3.1-.4.2-.2.4-.2.7-.3.1 0 .3-.1.3-.2.1-.2.3-.2.5-.2h.1c.2-.2.5-.2.8-.3.2 0 .2-.1.1-.2.2-.5.2-.6.2-.7 0-.2.2-.4.5-.4.2 0 .4.3.3.5-.2.3-.1.7-.1 1v.8c.1 0 .1 0 .2-.1.2-.1.3-.2.5-.2.4-.1.6-.3.7-.7.1-.3.4-.6.6-.9l1.2-1.5v-.2c0-.2-.1-.3-.1-.5.2 0 .5-.1.7-.1V28c-.3.1-.6.1-.9.2l-.1.1c-.1.3-.3.4-.5.5-.2.1-.4.1-.7.1-.5.1-1 .1-1.5.1-.2 0-.3.1-.5.2s-.3.1-.5.2c0-.3.1-.5.3-.7.3-.2.7-.4 1.1-.4.3 0 .4-.2.6-.3.1-.2.3-.3.5-.3.3 0 .5-.2.7-.3.2-.2.4-.2.6-.2.3.1.5 0 .8 0zm-1.9 10.2c.9-.5 1.8-.7 2.7-.8 1 0 1.9.1 2.8.3-.2-.8-.2-1.7-.2-2.5-.1-.8-.2-1.7-.1-2.5-.3 0-.5.1-.8.2l-.1.1c0 .4.1.9.1 1.3 0 0 0 .1-.1.1 0 0-.1.1-.2.1-.2-1.2-.1-2.4-.1-3.6-.2.1-.4.2-.6.2l-.1.1v2.1c0 .3 0 .7.1 1 0 .2 0 .3-.3.4-.2-1.1-.1-2.3-.1-3.4-.3.1-.5.2-.7.3l-.1.1v2.5c0 .2-.1.3-.2.4-.2-.9-.1-1.9-.1-2.8l-.9.3-.1.1v1.2c0 .2 0 .3-.2.5-.3-.5-.1-1.1-.2-1.6l-.9.3s-.1 0-.1.1c-.1.2-.1.4-.2.5 0 1 0 2-.1 2.9.3.8.6 1.5.8 2.1zm-.7-1.1c-.1-1.2 0-2.4 0-3.7-.2.1-.5.2-.7.3l-.1.1v1.5c0 .2-.1.3-.2.4-.2-.6-.2-1.3-.2-1.9-.1 0-.1 0-.2.1-.1 0-.1.1-.1.1v.8c0 .2 0 .3-.1.5-.3-.4-.2-.8-.2-1.2-.1.1-.3.2-.3.3v.7c0 .2 0 .3-.1.4-.2-.1-.2-.3-.2-.5v-.5c-.4.1-.4.1-.5.5-.1.6-.1 1.2-.1 1.8 0 .1 0 .2.2.2.7 0 1.5.1 2.2.1h.6zm6.4-.7c1-.1 1.9-.2 2.8-.3-.2-1.1-.1-2.1-.1-3.1-.3.1-.6.2-.8.2l-.1.1v1.2c0 .2 0 .3-.2.4 0-.1-.1-.1-.1-.1-.2-.5-.1-1-.1-1.5-.1 0-.1.1-.1.1v1.2c0 .2 0 .3-.2.5-.3-.6-.1-1.1-.2-1.7-.1 0-.2.1-.3.1l-.1.1v1.1c0 .2 0 .3-.1.4-.2-.2-.2-.5-.2-.7v-.8c0 .2-.2.2-.4.3.1.8.2 1.7.2 2.5zm0-5.8c-.4.1-.8.3-1.2.4l-.1.1V32c.2-.3.5-.3.8-.4 0 0 .1 0 .1-.1.1-.5.3-1.1.4-1.7zM12.6 37c.1 1.4 1.2 2 1.8 2-.4-.2-.8-.4-1.2-.7.4-.1.9-.6.9-.9-.3.2-.6.3-.9.5-.1-.4-.3-.8-.4-1.1l-.1-.1c-.4 0-.8-.1-1.1-.1v.4h1zm4.2-8c-.1.4-.1.7-.2 1l-.1.1c-.2.1-.2.1-.2.3.8-.3 1.7-.6 2.5-.9-.6-.1-1.3-.3-2-.5zm-1.8.6c-.5.6-.9 1.2-1.4 1.8h.1c.6-.2 1.1-.4 1.7-.6l.1-.1v-.4h-.2c-.2-.1-.3-.4-.3-.7zm5.6 1.8c-.2 0-.3.1-.4.1 0 0-.1 0-.1.1-.1.2-.2.3-.4.3s-.3 0-.5.1c0 0-.1 0-.1.1 0 .2-.1.5-.1.7.5-.2 1.1-.3 1.6-.5l.1-.1c-.1-.2-.1-.5-.1-.8zM17 39.1c0-.3-.7-2.1-.7-2.1v2.1h.7zm2-.8v-1c-.3-.1-.7-.2-1-.2.2.5.5.9 1 1.2zm-3.6-.4c-.1.3-.2.5-.3.8-.1.3-.2.5-.5.4h.8v-1.2zm2.7 1.2c.2 0 .4.1.6 0 .2-.1.3-.3.3-.5-.3.1-.6.3-.9.5zm2-2.6c-.3 0-.5 0-.8.1 0 .1.1.2.1.3.2-.1.5-.2.7-.4zm-.5-.6h-.4v.3c.2 0 .3-.1.4-.3zm1 .2c-.3-.1-.3.2-.4.4.3-.1.4-.3.4-.4zm17.6-7.7l.2-.2c.2-.2.5-.1.6.1.1.2.2.5.1.8 0 .1 0 .1.1.2.2.1.2.3.3.6l.3-.3c.2-.2.4-.3.7-.3.3 0 .5.2.4.5 0 .1 0 .2-.1.2.1 0 .3 0 .4.1.1.1.1.2.1.3 0 .1-.1.3-.1.4.2 0 .4-.1.6.1.1.2.1.4 0 .6.3.1.4.3.3.6l-.3.6c.2.2.1.4.1.6-.2.5-.6.9-1.1 1.2-.1 0-.1.1-.2.2s-.1.2-.2.4c-.3.4-.3.8-.3 1.3.1.9.4 1.8.7 2.6.2.5.4 1.1.6 1.7-3 2.2-6.8 2.2-9.5.3.1-.2.2-.4.2-.6.2-.4.3-.8.5-1.1.1-.3.3-.7.4-1 .1-.2.1-.3.2-.4.2-.4.3-.8.3-1.3 0-.7-.1-1.3-.5-1.9-.1-.2-.2-.3-.3-.5 0 0-.1-.1-.2-.1-.4 0-.8-.1-1.2-.3-.1-.1-.2-.1-.3-.2-.2-.2-.2-.5.1-.6.2-.1.4-.1.6-.2-.1-.2-.2-.5-.3-.8v-.4c0-.2.2-.3.4-.3.1-.5.2-.5.7-.4.1-.4.3-.5.6-.3v-.5c0-.3.2-.4.5-.3.1 0 .3.1.4.2 0-.2 0-.4.1-.6.1-.4.4-.5.7-.2.1.1.2.3.3.5v-.2c-.1-.4-.2-.8-.1-1.3 0-.2.1-.3.3-.4.2 0 .3.1.5.2.1.1.1.2.2.3.1-.2.1-.4.2-.6.1-.2.2-.3.3-.5.2-.3.5-.2.7.1 0 .1.1.2.1.3l.2-.2c.2-.2.5-.2.6.1 0 .5.1.7.1.9zm-.4 13.5c-.1-.4-.2-.7-.3-1-.3-1.3-.7-2.5-.5-3.8h-.7c0 1.7-.4 3.3-.7 4.9.8.1 1.5.1 2.2-.1zm-2.5.1c0-.2.1-.4.1-.6.3-1.2.5-2.5.6-3.7v-.6h-.8c-.2 1.6-.8 3.1-1.3 4.6.5.1 1 .2 1.4.3zm2.8-4.9h-.6c-.1 0-.2 0-.2.2 0 .4-.1.7 0 1.1.2.9.3 1.8.5 2.7l.3.9c.4-.1.8-.2 1.2-.4-.1-.2-.2-.4-.2-.5-.5-1.4-1-2.6-1-4zm2.5 3.8c-.3-.4-.5-.8-.7-1.2-.4-.8-1-1.6-1-2.6h-.3c-.1 0-.2 0-.2.2v.6c.1.8.4 1.5.6 2.3.2.4.3.9.5 1.3.4-.3.8-.4 1.1-.6zm-6.2-3.8c-.2 1.5-.9 2.8-1.5 4.1.2.1.5.2.7.3.5-1.2.9-2.5 1.2-3.8 0-.2.1-.4.1-.6h-.5zm5.6 0h-.9c0 .2.1.4.1.6.2.8.6 1.4 1 2.1l.6.9c.1-.1.2-.2.3-.2-.3-1.1-.7-2.3-1.1-3.4zm-6.2 0c-.5 1.3-1 2.5-1.5 3.7.1.1.3.2.4.2.5-1 1-2 1.3-3.1.1-.3.1-.5.2-.8h-.4zm0-.3H40v-.2h-6.2v.2zm0-.5H40v-.2h-6.1c-.1.1-.1.1-.1.2zm2.1-.9v-1.3c0-.3-.1-.5-.3-.6-.1.2-.1.4-.3.5-.1 0-.1.1-.1.2 0 .3 0 .6.1.9v.4c.1-.1.4-.1.6-.1zm.9-1.4c0-.5-.1-.9-.4-1.3-.1-.1-.2-.1-.3-.2 0 .1-.1.2-.1.3-.1.6 0 1.1.3 1.6 0 .1.1.1.2.2s.2.1.2 0c0-.3 0-.5.1-.6zm-2.8-.1c0-.5-.1-.9-.4-1.3-.1-.1-.2-.1-.2-.2 0 .1-.1.2-.1.2-.1.4 0 .8.1 1.1.1.2.2.5.4.7.1.1.2.1.2-.1-.1 0 0-.2 0-.4zm6.4-1.1c0-.1-.1-.2-.1-.3-.1 0-.2.1-.3.1-.3.3-.5.7-.6 1.1 0 .2-.1.4-.1.5 0 .2.1.2.2.1 0 0 .1 0 .1-.1.5-.3.7-.8.8-1.4zm-5.1.3c-.1-.3-.2-.7-.3-1.1 0-.1-.1-.3-.2-.4-.1-.1-.2-.1-.2.1s-.1.5 0 .7c0 .3.1.5.2.7.1.2.2.3.3.5.1.1.2.1.2 0-.1-.1 0-.3 0-.5zm.9 2.3h.9c0-.6.1-1.1 0-1.7-.1-.4.1-.7.2-1.1.1-.2.2-.4.1-.7-.1.2-.1.5-.2.7-.1.2-.2.3-.2.5s.1.4.1.6c0 .3 0 .5-.1.8-.1.3-.4.4-.6.2 0 0-.1 0-.1-.1-.1.3-.1.6-.1.8zm2.2-1.2v.2l.1.1c.1 0 .4-.3.4-.4.1-.4.2-.8.5-1.2.1-.1.1-.2 0-.3 0 0-.2 0-.3.1-.4.3-.6.9-.7 1.5zm-2.1-5.4c0 .2 0 .3.1.5 0 .1.1.1.1.2 0 0 .1-.1.2-.1.1-.2.2-.5.3-.7.1-.3.1-.6 0-.9-.1-.2-.1-.2-.3 0l-.1.1c-.2.2-.3.5-.3.9zm1.9.8c0 .2 0 .3.1.5s.1.2.3 0V30c.3-.5.4-1 .2-1.5 0-.1-.1-.2-.1-.2-.1.1-.2.1-.2.2-.2.4-.3.7-.3 1.1zm-2.2-.2c0-.4-.1-.8-.3-1.1-.1-.1-.2-.1-.2-.2 0 .1-.1.2-.1.3-.1.3 0 .7.1 1 .1.2.2.4.3.5.1.2.2.1.3-.1-.1 0-.1-.2-.1-.4zm2-.9c0-.2 0-.3-.1-.5s-.1-.2-.3-.1l-.1.1c-.3.5-.4 1-.2 1.5 0 .1.1.1.1.2.1-.1.2-.1.2-.2.3-.2.3-.6.4-1zm1.8 3c0 .2 0 .2.2.2.1 0 .1 0 .2-.1.4-.2.8-.6 1-1.1v-.3c-.1 0-.2 0-.3.1-.5.2-.8.6-1 1.1-.1 0-.1.1-.1.1zm2.2.5c0-.1-.1-.2-.2-.2s-.1 0-.2.1c-.4.2-.7.6-1 1 0 .1-.1.2-.1.3l.1.1c.1 0 .2 0 .2-.1.4-.2.7-.5.9-.9.2-.1.2-.2.3-.3zm-6.9-1.3c0-.4-.1-.8-.4-1.2l-.2-.2c0 .1-.1.2-.1.3-.2.6.2 1 .4 1.5l.1.1c.1.1.2.1.2 0-.1-.2-.1-.4 0-.5zm-.8 1c.1-.1.1-.2.2-.2v-.1c-.1-.5-.4-1-.8-1.3-.1 0-.1-.1-.2 0 0 0-.1.1-.1.2.1.5.4 1 .9 1.4zm5.2-.7c.2-.1.3-.2.4-.3.2-.1.3-.3.5-.4.2-.2.3-.4.3-.6 0-.1 0-.2-.2-.2-.1 0-.1 0-.2.1-.4.2-.7.6-.9 1 0 .1-.1.2-.1.2 0 .1.1.1.2.2zm-1.3 1.6c-.4.3-.8 1.1-.8 1.6 0 .1 0 .2.1.2s.2 0 .2-.1c.3-.2.4-.5.6-.8v-.2c0-.1-.1-.2-.1-.3-.1-.1 0-.2 0-.4zm-5.3.1c.1-.2.2-.3.2-.5v-.1c-.2-.4-.4-.8-.7-1-.1 0-.2-.1-.2-.1s-.1.1-.1.2v.2c.1.3.2.6.4.9l.4.4zm5.2 1.7c-.2.2-.4.4-.7.4 0 .2 0 .5-.1.7h1c0-.2 0-.4.1-.6v-.1c-.1-.2-.2-.3-.3-.4zm-4.3 1.3c0 .2.1.1.2.1h6l.1-.1h-6.3zm.4-1.3c0 .4.1.7.1 1.1h.6v-.2c0-.4 0-.8-.1-1.2 0-.1-.1-.2-.1-.2h-.1c0 .2-.1.4-.4.5zm4.2-1.3s.1 0 0 0c.1 0 .1-.1.1-.1.2-.3.4-.6.8-.8 0 0 .1 0 .1-.1 0-.2.1-.4.1-.6 0-.1 0-.2-.1-.2s-.2 0-.2.1c-.5.5-.8 1-.8 1.7zm3.3-.2c0 .1-.1.1 0 0-.3.3-.6.5-.9.6 0 0-.1 0-.1.1l-.3.6v.2h.2c.5-.3.9-.7 1.1-1.2v-.3zm-4.9-1.8c0-.1 0 0 0 0-.3.4-.3.8-.4 1.2v.1c.1.2.2.3.3.5.3-.4.3-.8.3-1.2v-.1c0-.3-.1-.4-.2-.5zm3.8 1.3c.3-.2.5-.5.8-.7.2-.1.3-.3.3-.5V31h-.2c-.5.2-.9.6-1.1 1.2 0 .1.1.2.2.2zm-.5 1.9c-.2.2-.4.4-.6.5v.7h.6c.1-.2.3-.5.4-.7-.3-.2-.4-.3-.4-.5zm-2.1-4s0 .1-.1.1c-.1.2-.1.5-.2.6-.2.3-.1.6-.1.9.1-.1.2-.2.4-.3.1-.1.2-.2.2-.3v-.2c.1-.2.2-.6-.2-.8zm-1.7-.6c-.1.4-.2.8 0 1.1 0 .1.1.2.1.2.1 0 .1-.1.2-.1.3-.4.3-.8.3-1.3-.2.1-.3.2-.6.1zm-3.4 3.7c-.2.1-.4.1-.5 0-.1-.1-.2-.2-.4-.3l-.1-.1c-.2 0-.4 0-.5.1-.2.1-.2.2 0 .3l.6.3c.3.1.7.1 1 0 0-.1-.1-.2-.1-.3zm6.3-3.9c-.1.3-.2.5-.4.8-.1.2-.2.3-.2.5v.2c0 .1 0 .3.2.4l.2-.2c0-.1.1-.2.1-.2-.1-.3 0-.5.1-.7.1-.2.1-.6 0-.8zm-2 .4c0 .2-.1.3-.1.5s0 .5.1.7c0 .1.1.1.2 0 .2-.2.4-.9.3-1.2-.2.2-.3.2-.5 0zm-1.1 2.2c-.1-.2-.2-.5-.4-.7-.1-.1-.2-.1-.2 0s0 .1-.1.2c-.1.3 0 .7.1 1 0 .2.1.3.2.5 0-.4 0-.7.4-1zm-.1-.7c0-.3 0-.6-.1-.9 0 0 0-.1-.1-.1-.2 0-.3-.2-.5-.3 0 .4 0 .7.1 1.1.3-.1.3-.1.6.2zm-1.7 2.7c.1-.1.1-.1.1-.2.1-.5 0-.9-.2-1.3-.1-.2-.2-.3-.3-.5l-.2-.1c-.1.1-.2.2-.1.3.3.3.4.8.5 1.2.1.2.1.4.2.6zm-.6-2.5c-.1-.2-.3-.5-.5-.7-.1-.1-.2-.1-.2-.2h-.2v.4c.2.3.4.6.5.9.2-.1.3-.2.4-.4zm-2 .1c0 .4.2.7.4 1 .1.2.3.3.5.5h.2v-.3c-.4-.3-.7-.8-.8-1.3 0 0 0-.1-.1-.1 0 0-.1 0-.1.1-.1 0-.1.1-.1.1zm7.4 3.7c-.1-.3.2-.6-.1-.9-.1.1-.2.1-.3.2l-.1.1c0 .2 0 .4-.1.6h.6zm-5.1-.6c-.2.1-.4 0-.5-.1.1.2.1.4.2.5.1.3.1.3.4.3-.1-.3-.1-.5-.1-.7zm3.5-2c.1 0 .1 0 0 0 .3-.3.4-.5.8-.6.1 0 .1-.2.1-.2h-.2c-.3.2-.5.5-.7.8zm-2.4-1.2c0-.1.1-.2.1-.3-.1.1-.2.1-.2.2l.1.1z"/>
    <path d="M11.6 72.7l2.1-2.7c.3.2.6.4.8.6v.2c-.2.7-.3 1.5-.5 2.2v.1c.5-.6.9-1.2 1.4-1.8.2.2.4.3.6.5l-2.1 2.7c-.3-.2-.5-.4-.8-.6v-.2c.2-.7.3-1.5.5-2.2v-.2c-.5.6-1 1.2-1.4 1.9-.2-.2-.4-.3-.6-.5z"/>
    <path fill-rule="nonzero" d="M12 70.8c.1.3 0 .5-.2.7-.1.2-.2.3-.3.5-.1.1-.1.3-.2.4-.2-.2-.4-.4-.6-.7.2-.2.4-.5.6-.8.1-.2.1-.3 0-.5-.1-.1-.2-.2-.3-.4-.3.3-.6.6-1 .9l-.6-.6c.8-.8 1.5-1.6 2.4-2.4l.6.6c.2.2.5.4.7.7.4.5.3 1.3-.4 1.4-.3.2-.5.2-.7.2zm-.8-1.2c.1.1.3.2.4.3l.1.1c.2.1.4.1.5-.1.1-.2.1-.3 0-.5l-.4-.4c-.2.3-.4.4-.6.6z"/>
    <path d="M8.6 65.9c-.1-.2-.3-.4-.4-.7h.1c.3-.2.3-.5 0-.8-.1-.1-.3-.1-.4-.1-.2.1-.2.2-.1.4 0 .2.1.4.2.6 0 .2.1.3.1.5.1.7-.6 1-1.1.9-.6-.1-.9-.5-1.1-1-.1-.2-.2-.5-.2-.7.1-.4.3-.6.7-.8.1.2.3.5.4.7h-.1c-.2.1-.3.2-.3.4 0 .3.2.5.4.6.1.1.2 0 .4 0 .1-.1.1-.2.1-.3-.2-.3-.3-.6-.4-.9-.1-.6.2-1.1.9-1.1.2 0 .4.1.6.2.4.3.6.7.7 1.1.1.5-.1.8-.5 1z"/>
    <path fill-rule="nonzero" d="M18.3 77.1c-.2-.1-.4-.2-.6-.4 0 0-.1-.1-.1-.2 0-.2.1-.4.1-.6-.3-.2-.7-.4-1-.6-.2.1-.3.3-.4.4-.1.1-.1.1-.2 0l-.6-.3c.2-.2.4-.3.6-.5.7-.6 1.3-1.2 2-1.8.1-.1.1-.1.2 0 .2.1.4.2.5.3.1.1.1.2.1.3l-.3 1.5c0 .7-.1 1.2-.3 1.9.1-.1 0 0 0 0zm-.2-2.9s-.1 0 0 0c-.3.2-.6.4-.8.7.2.1.4.2.6.4 0-.4.1-.7.2-1.1zm-7.3-7.1c-.6 1-1.3 2-1.9 3-.2-.2-.3-.4-.5-.6v-.1c.1-.1.2-.3.3-.4.1-.1 0-.1 0-.2-.2-.2-.4-.5-.6-.7C8 68 8 68 7.9 68c-.2.1-.3.1-.5.2h-.1c-.2-.2-.3-.4-.5-.6.4-.1.8-.3 1.1-.4.7-.2 1.4-.5 2.1-.7.1 0 .2 0 .2.1.3.1.5.3.6.5zm-1 .2s-.1 0 0 0c-.4.1-.7.2-1.1.3.2.3.3.4.5.6l.6-.9z"/>
    <path d="M14.5 74.9c.6-.9 1.2-1.9 1.8-2.8.2.2.5.3.7.5-.6.9-1.2 1.9-1.8 2.8-.2-.2-.4-.4-.7-.5zm23-2.4c.4.6.9 1.2 1.3 1.8-.2.2-.4.3-.6.5-.7-.9-1.3-1.8-2-2.7.3-.2.6-.5 1-.7h.2l1.5 1.2s.1.1.2.1v-.2l-.6-1.8c0-.1 0-.2.1-.2l.9-.6c.7.9 1.3 1.8 2 2.7-.2.2-.4.3-.7.5-.4-.6-.9-1.2-1.3-1.8.1.2.1.4.2.6.2.5.3 1 .5 1.5 0 .1 0 .2-.1.2-.1.1-.3.2-.4.3-.9-.4-1.6-.9-2.2-1.4z"/>
    <path fill-rule="nonzero" d="M45.7 64.4c.2-.1.4-.1.6-.1.2.1.3.1.5.2s.4.1.6.2c-.1.2-.3.5-.4.8-.3-.1-.6-.2-1-.3-.3-.1-.3-.1-.4.2-.1.1-.2.3-.2.4.4.2.8.4 1.1.6-.1.2-.3.5-.4.7-1-.5-2-1.1-3-1.6.2-.3.3-.6.5-.8.1-.3.3-.5.5-.8.2-.3.6-.4 1-.3.3 0 .5.3.6.8 0-.1 0-.1 0 0zm-.9 1l.3-.6c.1-.2 0-.3-.2-.4-.2-.1-.3-.1-.4 0-.1.2-.3.4-.4.6.3.2.5.3.7.4z"/>
    <path d="M43 65.8c.2.1.4.3.6.4-.2.2-.3.4-.5.7-.2.2-.3.4-.5.6.1.1.3.2.4.3l.9-1.2c.2.1.4.3.5.4l-.9 1.2c.2.1.4.3.5.4.4-.5.7-.9 1.1-1.4.2.1.4.3.6.4-.5.7-1 1.3-1.6 2-.9-.7-1.7-1.4-2.6-2.1.5-.4 1-1.1 1.5-1.7zM32 76.6c.3-.1.5-.2.8-.3 0 0 0 .1.1.1.1.2.2.3.4.3.3 0 .5-.1.6-.3.1-.2 0-.5-.3-.5s-.6.1-.9.1c-.6 0-.9-.1-1-.5-.2-.4-.1-.9.4-1.2.4-.3.9-.5 1.4-.4.3.1.5.3.6.6-.2.1-.5.2-.7.3v-.1c-.2-.3-.6-.3-.8 0-.1.1-.1.2 0 .4.1.1.2.2.3.2.3 0 .5-.1.8-.1h.4c.6.1.9.8.6 1.4-.3.5-1.2 1-1.8.9-.5-.2-.7-.5-.9-.9zm4.5-3.2l.3.6c-.4.2-.8.4-1.2.7.1.2.2.4.4.6.4-.2.9-.5 1.3-.7l.3.6c-.7.4-1.4.8-2 1.1-.5-1-1.1-2-1.6-2.9.7-.4 1.3-.7 2-1.1l.3.6c-.4.2-.8.5-1.3.7l.3.6c.4-.4.8-.6 1.2-.8z"/>
    <path fill-rule="nonzero" d="M41.5 70.6c.3.3.6.6.8.9l-.6.6c-.8-.8-1.6-1.6-2.3-2.5.4-.4.8-.7 1.2-1.1.4-.3.9-.2 1.3.2.4.5.4 1 .1 1.4-.1.2-.3.3-.5.5zm-.4-.4c.1-.1.3-.3.3-.4.1-.1.1-.3-.1-.5-.1-.1-.3-.1-.4 0-.1.1-.2.2-.4.3l.6.6z"/>
  </g>
</svg>
